ISO-10303-21;
HEADER;
/* Generated by software containing ST-Developer
 * from STEP Tools, Inc. (www.steptools.com) 
 */
/* OPTION: using custom renumber hook */

FILE_DESCRIPTION(
/* description */ ('STEP AP242 Edition 2',
'CAx-IF Rec.Pracs.---Representation and Presentation of Product Manufa
cturing Information (PMI)---4.0---2014-10-13',
'CAx-IF Rec.Pracs.---3D Tessellated Geometry---0.4---2014-09-14','2;1',
'CAx-IF Rec.Pracs.---User Defined Attributes---1.5---2016-08-15'),
/* implementation_level */ '2;1');

FILE_NAME(
/* name */ 'Part Studio 1',
/* time_stamp */ '2026-06-30T20:01:14Z',
/* author */ (''),
/* organization */ (''),
/* preprocessor_version */ 'ST-DEVELOPER v20',
/* originating_system */ 'ONSHAPE BY PTC INC, 1.217',
/* authorisation */ '  ');

FILE_SCHEMA (('AP242_MANAGED_MODEL_BASED_3D_ENGINEERING_MIM_LF { 1 0 10303 442 3 1 4 }'));
ENDSEC;

DATA;
#10=SHAPE_REPRESENTATION_RELATIONSHIP('','',#633,#11);
#11=ADVANCED_BREP_SHAPE_REPRESENTATION('',(#631),#1111);
#12=ELLIPSE('',#688,0.00707106781186548,0.005);
#13=ELLIPSE('',#697,0.00707106781186548,0.005);
#14=ELLIPSE('',#699,0.00707106781186547,0.005);
#15=ELLIPSE('',#705,0.00707106781186547,0.005);
#16=SPHERICAL_SURFACE('',#657,0.005);
#17=SPHERICAL_SURFACE('',#659,0.005);
#18=SPHERICAL_SURFACE('',#661,0.005);
#19=SPHERICAL_SURFACE('',#663,0.005);
#20=SPHERICAL_SURFACE('',#679,0.005);
#21=SPHERICAL_SURFACE('',#681,0.005);
#22=SPHERICAL_SURFACE('',#683,0.005);
#23=SPHERICAL_SURFACE('',#685,0.005);
#24=SPHERICAL_SURFACE('',#700,0.005);
#25=SPHERICAL_SURFACE('',#702,0.005);
#26=SPHERICAL_SURFACE('',#714,0.005);
#27=SPHERICAL_SURFACE('',#716,0.005);
#28=CIRCLE('',#646,0.005);
#29=CIRCLE('',#647,0.005);
#30=CIRCLE('',#649,0.005);
#31=CIRCLE('',#650,0.005);
#32=CIRCLE('',#652,0.005);
#33=CIRCLE('',#653,0.005);
#34=CIRCLE('',#655,0.005);
#35=CIRCLE('',#656,0.005);
#36=CIRCLE('',#658,0.005);
#37=CIRCLE('',#660,0.005);
#38=CIRCLE('',#662,0.005);
#39=CIRCLE('',#664,0.005);
#40=CIRCLE('',#666,0.005);
#41=CIRCLE('',#668,0.005);
#42=CIRCLE('',#670,0.005);
#43=CIRCLE('',#671,0.005);
#44=CIRCLE('',#673,0.005);
#45=CIRCLE('',#675,0.005);
#46=CIRCLE('',#677,0.005);
#47=CIRCLE('',#678,0.005);
#48=CIRCLE('',#680,0.005);
#49=CIRCLE('',#682,0.005);
#50=CIRCLE('',#684,0.005);
#51=CIRCLE('',#686,0.005);
#52=CIRCLE('',#690,0.005);
#53=CIRCLE('',#692,0.005);
#54=CIRCLE('',#693,0.005);
#55=CIRCLE('',#695,0.005);
#56=CIRCLE('',#701,0.005);
#57=CIRCLE('',#703,0.005);
#58=CIRCLE('',#707,0.005);
#59=CIRCLE('',#709,0.005);
#60=CIRCLE('',#711,0.005);
#61=CIRCLE('',#713,0.005);
#62=CIRCLE('',#715,0.005);
#63=CIRCLE('',#717,0.005);
#64=CYLINDRICAL_SURFACE('',#645,0.005);
#65=CYLINDRICAL_SURFACE('',#648,0.005);
#66=CYLINDRICAL_SURFACE('',#651,0.005);
#67=CYLINDRICAL_SURFACE('',#654,0.005);
#68=CYLINDRICAL_SURFACE('',#665,0.005);
#69=CYLINDRICAL_SURFACE('',#667,0.005);
#70=CYLINDRICAL_SURFACE('',#669,0.005);
#71=CYLINDRICAL_SURFACE('',#672,0.005);
#72=CYLINDRICAL_SURFACE('',#674,0.005);
#73=CYLINDRICAL_SURFACE('',#676,0.005);
#74=CYLINDRICAL_SURFACE('',#687,0.005);
#75=CYLINDRICAL_SURFACE('',#689,0.005);
#76=CYLINDRICAL_SURFACE('',#691,0.005);
#77=CYLINDRICAL_SURFACE('',#694,0.005);
#78=CYLINDRICAL_SURFACE('',#696,0.005);
#79=CYLINDRICAL_SURFACE('',#698,0.005);
#80=CYLINDRICAL_SURFACE('',#704,0.005);
#81=CYLINDRICAL_SURFACE('',#706,0.005);
#82=CYLINDRICAL_SURFACE('',#708,0.005);
#83=CYLINDRICAL_SURFACE('',#710,0.005);
#84=CYLINDRICAL_SURFACE('',#712,0.005);
#85=CYLINDRICAL_SURFACE('',#718,0.005);
#86=ORIENTED_EDGE('',*,*,#258,.T.);
#87=ORIENTED_EDGE('',*,*,#259,.T.);
#88=ORIENTED_EDGE('',*,*,#260,.T.);
#89=ORIENTED_EDGE('',*,*,#261,.T.);
#90=ORIENTED_EDGE('',*,*,#262,.T.);
#91=ORIENTED_EDGE('',*,*,#263,.T.);
#92=ORIENTED_EDGE('',*,*,#264,.T.);
#93=ORIENTED_EDGE('',*,*,#265,.T.);
#94=ORIENTED_EDGE('',*,*,#266,.T.);
#95=ORIENTED_EDGE('',*,*,#267,.T.);
#96=ORIENTED_EDGE('',*,*,#268,.T.);
#97=ORIENTED_EDGE('',*,*,#269,.T.);
#98=ORIENTED_EDGE('',*,*,#270,.T.);
#99=ORIENTED_EDGE('',*,*,#271,.T.);
#100=ORIENTED_EDGE('',*,*,#272,.T.);
#101=ORIENTED_EDGE('',*,*,#273,.T.);
#102=ORIENTED_EDGE('',*,*,#274,.T.);
#103=ORIENTED_EDGE('',*,*,#275,.T.);
#104=ORIENTED_EDGE('',*,*,#276,.F.);
#105=ORIENTED_EDGE('',*,*,#277,.T.);
#106=ORIENTED_EDGE('',*,*,#276,.T.);
#107=ORIENTED_EDGE('',*,*,#278,.T.);
#108=ORIENTED_EDGE('',*,*,#279,.F.);
#109=ORIENTED_EDGE('',*,*,#280,.T.);
#110=ORIENTED_EDGE('',*,*,#279,.T.);
#111=ORIENTED_EDGE('',*,*,#281,.T.);
#112=ORIENTED_EDGE('',*,*,#282,.T.);
#113=ORIENTED_EDGE('',*,*,#283,.T.);
#114=ORIENTED_EDGE('',*,*,#284,.T.);
#115=ORIENTED_EDGE('',*,*,#285,.T.);
#116=ORIENTED_EDGE('',*,*,#286,.T.);
#117=ORIENTED_EDGE('',*,*,#287,.T.);
#118=ORIENTED_EDGE('',*,*,#288,.T.);
#119=ORIENTED_EDGE('',*,*,#289,.T.);
#120=ORIENTED_EDGE('',*,*,#290,.T.);
#121=ORIENTED_EDGE('',*,*,#291,.T.);
#122=ORIENTED_EDGE('',*,*,#292,.T.);
#123=ORIENTED_EDGE('',*,*,#293,.T.);
#124=ORIENTED_EDGE('',*,*,#294,.T.);
#125=ORIENTED_EDGE('',*,*,#295,.T.);
#126=ORIENTED_EDGE('',*,*,#296,.T.);
#127=ORIENTED_EDGE('',*,*,#297,.T.);
#128=ORIENTED_EDGE('',*,*,#298,.T.);
#129=ORIENTED_EDGE('',*,*,#299,.T.);
#130=ORIENTED_EDGE('',*,*,#300,.T.);
#131=ORIENTED_EDGE('',*,*,#301,.T.);
#132=ORIENTED_EDGE('',*,*,#302,.T.);
#133=ORIENTED_EDGE('',*,*,#303,.T.);
#134=ORIENTED_EDGE('',*,*,#304,.F.);
#135=ORIENTED_EDGE('',*,*,#266,.F.);
#136=ORIENTED_EDGE('',*,*,#305,.F.);
#137=ORIENTED_EDGE('',*,*,#294,.F.);
#138=ORIENTED_EDGE('',*,*,#306,.F.);
#139=ORIENTED_EDGE('',*,*,#267,.F.);
#140=ORIENTED_EDGE('',*,*,#307,.F.);
#141=ORIENTED_EDGE('',*,*,#265,.F.);
#142=ORIENTED_EDGE('',*,*,#308,.F.);
#143=ORIENTED_EDGE('',*,*,#268,.F.);
#144=ORIENTED_EDGE('',*,*,#309,.F.);
#145=ORIENTED_EDGE('',*,*,#300,.F.);
#146=ORIENTED_EDGE('',*,*,#310,.F.);
#147=ORIENTED_EDGE('',*,*,#269,.F.);
#148=ORIENTED_EDGE('',*,*,#311,.F.);
#149=ORIENTED_EDGE('',*,*,#273,.F.);
#150=ORIENTED_EDGE('',*,*,#305,.T.);
#151=ORIENTED_EDGE('',*,*,#310,.T.);
#152=ORIENTED_EDGE('',*,*,#312,.F.);
#153=ORIENTED_EDGE('',*,*,#307,.T.);
#154=ORIENTED_EDGE('',*,*,#304,.T.);
#155=ORIENTED_EDGE('',*,*,#313,.F.);
#156=ORIENTED_EDGE('',*,*,#309,.T.);
#157=ORIENTED_EDGE('',*,*,#306,.T.);
#158=ORIENTED_EDGE('',*,*,#314,.F.);
#159=ORIENTED_EDGE('',*,*,#311,.T.);
#160=ORIENTED_EDGE('',*,*,#308,.T.);
#161=ORIENTED_EDGE('',*,*,#315,.F.);
#162=ORIENTED_EDGE('',*,*,#312,.T.);
#163=ORIENTED_EDGE('',*,*,#272,.F.);
#164=ORIENTED_EDGE('',*,*,#316,.F.);
#165=ORIENTED_EDGE('',*,*,#295,.F.);
#166=ORIENTED_EDGE('',*,*,#313,.T.);
#167=ORIENTED_EDGE('',*,*,#293,.F.);
#168=ORIENTED_EDGE('',*,*,#317,.F.);
#169=ORIENTED_EDGE('',*,*,#262,.F.);
#170=ORIENTED_EDGE('',*,*,#318,.F.);
#171=ORIENTED_EDGE('',*,*,#263,.F.);
#172=ORIENTED_EDGE('',*,*,#319,.F.);
#173=ORIENTED_EDGE('',*,*,#260,.F.);
#174=ORIENTED_EDGE('',*,*,#314,.T.);
#175=ORIENTED_EDGE('',*,*,#264,.F.);
#176=ORIENTED_EDGE('',*,*,#320,.F.);
#177=ORIENTED_EDGE('',*,*,#301,.F.);
#178=ORIENTED_EDGE('',*,*,#315,.T.);
#179=ORIENTED_EDGE('',*,*,#299,.F.);
#180=ORIENTED_EDGE('',*,*,#321,.F.);
#181=ORIENTED_EDGE('',*,*,#270,.F.);
#182=ORIENTED_EDGE('',*,*,#322,.F.);
#183=ORIENTED_EDGE('',*,*,#271,.F.);
#184=ORIENTED_EDGE('',*,*,#323,.F.);
#185=ORIENTED_EDGE('',*,*,#274,.F.);
#186=ORIENTED_EDGE('',*,*,#316,.T.);
#187=ORIENTED_EDGE('',*,*,#322,.T.);
#188=ORIENTED_EDGE('',*,*,#324,.F.);
#189=ORIENTED_EDGE('',*,*,#319,.T.);
#190=ORIENTED_EDGE('',*,*,#317,.T.);
#191=ORIENTED_EDGE('',*,*,#325,.F.);
#192=ORIENTED_EDGE('',*,*,#320,.T.);
#193=ORIENTED_EDGE('',*,*,#318,.T.);
#194=ORIENTED_EDGE('',*,*,#326,.F.);
#195=ORIENTED_EDGE('',*,*,#323,.T.);
#196=ORIENTED_EDGE('',*,*,#321,.T.);
#197=ORIENTED_EDGE('',*,*,#327,.F.);
#198=ORIENTED_EDGE('',*,*,#324,.T.);
#199=ORIENTED_EDGE('',*,*,#277,.F.);
#200=ORIENTED_EDGE('',*,*,#328,.F.);
#201=ORIENTED_EDGE('',*,*,#288,.F.);
#202=ORIENTED_EDGE('',*,*,#325,.T.);
#203=ORIENTED_EDGE('',*,*,#292,.F.);
#204=ORIENTED_EDGE('',*,*,#329,.F.);
#205=ORIENTED_EDGE('',*,*,#261,.F.);
#206=ORIENTED_EDGE('',*,*,#330,.F.);
#207=ORIENTED_EDGE('',*,*,#258,.F.);
#208=ORIENTED_EDGE('',*,*,#331,.F.);
#209=ORIENTED_EDGE('',*,*,#286,.F.);
#210=ORIENTED_EDGE('',*,*,#326,.T.);
#211=ORIENTED_EDGE('',*,*,#259,.F.);
#212=ORIENTED_EDGE('',*,*,#332,.F.);
#213=ORIENTED_EDGE('',*,*,#302,.F.);
#214=ORIENTED_EDGE('',*,*,#327,.T.);
#215=ORIENTED_EDGE('',*,*,#298,.F.);
#216=ORIENTED_EDGE('',*,*,#333,.F.);
#217=ORIENTED_EDGE('',*,*,#275,.F.);
#218=ORIENTED_EDGE('',*,*,#328,.T.);
#219=ORIENTED_EDGE('',*,*,#280,.F.);
#220=ORIENTED_EDGE('',*,*,#334,.F.);
#221=ORIENTED_EDGE('',*,*,#289,.F.);
#222=ORIENTED_EDGE('',*,*,#331,.T.);
#223=ORIENTED_EDGE('',*,*,#329,.T.);
#224=ORIENTED_EDGE('',*,*,#335,.F.);
#225=ORIENTED_EDGE('',*,*,#332,.T.);
#226=ORIENTED_EDGE('',*,*,#330,.T.);
#227=ORIENTED_EDGE('',*,*,#336,.F.);
#228=ORIENTED_EDGE('',*,*,#333,.T.);
#229=ORIENTED_EDGE('',*,*,#297,.F.);
#230=ORIENTED_EDGE('',*,*,#337,.F.);
#231=ORIENTED_EDGE('',*,*,#278,.F.);
#232=ORIENTED_EDGE('',*,*,#334,.T.);
#233=ORIENTED_EDGE('',*,*,#283,.F.);
#234=ORIENTED_EDGE('',*,*,#338,.F.);
#235=ORIENTED_EDGE('',*,*,#290,.F.);
#236=ORIENTED_EDGE('',*,*,#335,.T.);
#237=ORIENTED_EDGE('',*,*,#291,.F.);
#238=ORIENTED_EDGE('',*,*,#339,.F.);
#239=ORIENTED_EDGE('',*,*,#287,.F.);
#240=ORIENTED_EDGE('',*,*,#336,.T.);
#241=ORIENTED_EDGE('',*,*,#285,.F.);
#242=ORIENTED_EDGE('',*,*,#340,.F.);
#243=ORIENTED_EDGE('',*,*,#303,.F.);
#244=ORIENTED_EDGE('',*,*,#337,.T.);
#245=ORIENTED_EDGE('',*,*,#296,.F.);
#246=ORIENTED_EDGE('',*,*,#341,.F.);
#247=ORIENTED_EDGE('',*,*,#281,.F.);
#248=ORIENTED_EDGE('',*,*,#339,.T.);
#249=ORIENTED_EDGE('',*,*,#338,.T.);
#250=ORIENTED_EDGE('',*,*,#342,.F.);
#251=ORIENTED_EDGE('',*,*,#341,.T.);
#252=ORIENTED_EDGE('',*,*,#340,.T.);
#253=ORIENTED_EDGE('',*,*,#343,.F.);
#254=ORIENTED_EDGE('',*,*,#342,.T.);
#255=ORIENTED_EDGE('',*,*,#282,.F.);
#256=ORIENTED_EDGE('',*,*,#343,.T.);
#257=ORIENTED_EDGE('',*,*,#284,.F.);
#258=EDGE_CURVE('',#344,#345,#388,.T.);
#259=EDGE_CURVE('',#345,#346,#389,.F.);
#260=EDGE_CURVE('',#346,#347,#390,.F.);
#261=EDGE_CURVE('',#347,#344,#391,.T.);
#262=EDGE_CURVE('',#348,#349,#392,.F.);
#263=EDGE_CURVE('',#349,#350,#393,.T.);
#264=EDGE_CURVE('',#350,#351,#394,.T.);
#265=EDGE_CURVE('',#351,#348,#395,.F.);
#266=EDGE_CURVE('',#352,#353,#396,.F.);
#267=EDGE_CURVE('',#353,#354,#397,.T.);
#268=EDGE_CURVE('',#354,#355,#398,.T.);
#269=EDGE_CURVE('',#355,#352,#399,.F.);
#270=EDGE_CURVE('',#356,#357,#400,.T.);
#271=EDGE_CURVE('',#357,#358,#401,.F.);
#272=EDGE_CURVE('',#358,#359,#402,.F.);
#273=EDGE_CURVE('',#359,#356,#403,.T.);
#274=EDGE_CURVE('',#360,#361,#404,.T.);
#275=EDGE_CURVE('',#361,#362,#405,.F.);
#276=EDGE_CURVE('',#363,#362,#406,.T.);
#277=EDGE_CURVE('',#363,#360,#407,.T.);
#278=EDGE_CURVE('',#362,#364,#408,.F.);
#279=EDGE_CURVE('',#365,#364,#409,.T.);
#280=EDGE_CURVE('',#365,#363,#410,.T.);
#281=EDGE_CURVE('',#364,#366,#411,.F.);
#282=EDGE_CURVE('',#366,#367,#412,.F.);
#283=EDGE_CURVE('',#367,#365,#413,.T.);
#284=EDGE_CURVE('',#368,#369,#414,.T.);
#285=EDGE_CURVE('',#369,#370,#415,.F.);
#286=EDGE_CURVE('',#370,#371,#416,.F.);
#287=EDGE_CURVE('',#371,#368,#417,.T.);
#288=EDGE_CURVE('',#372,#373,#418,.F.);
#289=EDGE_CURVE('',#373,#374,#419,.F.);
#290=EDGE_CURVE('',#374,#375,#420,.F.);
#291=EDGE_CURVE('',#375,#376,#421,.F.);
#292=EDGE_CURVE('',#376,#377,#422,.F.);
#293=EDGE_CURVE('',#377,#378,#423,.T.);
#294=EDGE_CURVE('',#378,#379,#424,.T.);
#295=EDGE_CURVE('',#379,#372,#425,.T.);
#296=EDGE_CURVE('',#380,#381,#426,.T.);
#297=EDGE_CURVE('',#381,#382,#427,.T.);
#298=EDGE_CURVE('',#382,#383,#428,.T.);
#299=EDGE_CURVE('',#383,#384,#429,.F.);
#300=EDGE_CURVE('',#384,#385,#430,.F.);
#301=EDGE_CURVE('',#385,#386,#431,.F.);
#302=EDGE_CURVE('',#386,#387,#432,.T.);
#303=EDGE_CURVE('',#387,#380,#433,.T.);
#304=EDGE_CURVE('',#353,#378,#28,.T.);
#305=EDGE_CURVE('',#379,#352,#29,.T.);
#306=EDGE_CURVE('',#354,#351,#30,.T.);
#307=EDGE_CURVE('',#348,#353,#31,.T.);
#308=EDGE_CURVE('',#355,#384,#32,.T.);
#309=EDGE_CURVE('',#385,#354,#33,.T.);
#310=EDGE_CURVE('',#352,#359,#34,.T.);
#311=EDGE_CURVE('',#356,#355,#35,.T.);
#312=EDGE_CURVE('',#379,#359,#36,.F.);
#313=EDGE_CURVE('',#348,#378,#37,.F.);
#314=EDGE_CURVE('',#385,#351,#38,.F.);
#315=EDGE_CURVE('',#356,#384,#39,.F.);
#316=EDGE_CURVE('',#372,#358,#40,.T.);
#317=EDGE_CURVE('',#349,#377,#41,.T.);
#318=EDGE_CURVE('',#350,#346,#42,.T.);
#319=EDGE_CURVE('',#347,#349,#43,.T.);
#320=EDGE_CURVE('',#386,#350,#44,.T.);
#321=EDGE_CURVE('',#357,#383,#45,.T.);
#322=EDGE_CURVE('',#358,#360,#46,.T.);
#323=EDGE_CURVE('',#361,#357,#47,.T.);
#324=EDGE_CURVE('',#372,#360,#48,.F.);
#325=EDGE_CURVE('',#347,#377,#49,.F.);
#326=EDGE_CURVE('',#386,#346,#50,.F.);
#327=EDGE_CURVE('',#361,#383,#51,.F.);
#328=EDGE_CURVE('',#373,#363,#12,.F.);
#329=EDGE_CURVE('',#344,#376,#52,.T.);
#330=EDGE_CURVE('',#345,#370,#53,.T.);
#331=EDGE_CURVE('',#371,#344,#54,.T.);
#332=EDGE_CURVE('',#387,#345,#55,.T.);
#333=EDGE_CURVE('',#362,#382,#13,.T.);
#334=EDGE_CURVE('',#374,#365,#14,.F.);
#335=EDGE_CURVE('',#371,#376,#56,.F.);
#336=EDGE_CURVE('',#387,#370,#57,.F.);
#337=EDGE_CURVE('',#364,#381,#15,.T.);
#338=EDGE_CURVE('',#375,#367,#58,.T.);
#339=EDGE_CURVE('',#368,#375,#59,.T.);
#340=EDGE_CURVE('',#380,#369,#60,.T.);
#341=EDGE_CURVE('',#366,#380,#61,.T.);
#342=EDGE_CURVE('',#368,#367,#62,.F.);
#343=EDGE_CURVE('',#366,#369,#63,.F.);
#344=VERTEX_POINT('',#938);
#345=VERTEX_POINT('',#939);
#346=VERTEX_POINT('',#941);
#347=VERTEX_POINT('',#943);
#348=VERTEX_POINT('',#947);
#349=VERTEX_POINT('',#948);
#350=VERTEX_POINT('',#950);
#351=VERTEX_POINT('',#952);
#352=VERTEX_POINT('',#956);
#353=VERTEX_POINT('',#957);
#354=VERTEX_POINT('',#959);
#355=VERTEX_POINT('',#961);
#356=VERTEX_POINT('',#965);
#357=VERTEX_POINT('',#966);
#358=VERTEX_POINT('',#968);
#359=VERTEX_POINT('',#970);
#360=VERTEX_POINT('',#974);
#361=VERTEX_POINT('',#975);
#362=VERTEX_POINT('',#977);
#363=VERTEX_POINT('',#979);
#364=VERTEX_POINT('',#983);
#365=VERTEX_POINT('',#985);
#366=VERTEX_POINT('',#989);
#367=VERTEX_POINT('',#991);
#368=VERTEX_POINT('',#995);
#369=VERTEX_POINT('',#996);
#370=VERTEX_POINT('',#998);
#371=VERTEX_POINT('',#1000);
#372=VERTEX_POINT('',#1004);
#373=VERTEX_POINT('',#1005);
#374=VERTEX_POINT('',#1007);
#375=VERTEX_POINT('',#1009);
#376=VERTEX_POINT('',#1011);
#377=VERTEX_POINT('',#1013);
#378=VERTEX_POINT('',#1015);
#379=VERTEX_POINT('',#1017);
#380=VERTEX_POINT('',#1021);
#381=VERTEX_POINT('',#1022);
#382=VERTEX_POINT('',#1024);
#383=VERTEX_POINT('',#1026);
#384=VERTEX_POINT('',#1028);
#385=VERTEX_POINT('',#1030);
#386=VERTEX_POINT('',#1032);
#387=VERTEX_POINT('',#1034);
#388=LINE('',#937,#434);
#389=LINE('',#940,#435);
#390=LINE('',#942,#436);
#391=LINE('',#944,#437);
#392=LINE('',#946,#438);
#393=LINE('',#949,#439);
#394=LINE('',#951,#440);
#395=LINE('',#953,#441);
#396=LINE('',#955,#442);
#397=LINE('',#958,#443);
#398=LINE('',#960,#444);
#399=LINE('',#962,#445);
#400=LINE('',#964,#446);
#401=LINE('',#967,#447);
#402=LINE('',#969,#448);
#403=LINE('',#971,#449);
#404=LINE('',#973,#450);
#405=LINE('',#976,#451);
#406=LINE('',#978,#452);
#407=LINE('',#980,#453);
#408=LINE('',#982,#454);
#409=LINE('',#984,#455);
#410=LINE('',#986,#456);
#411=LINE('',#988,#457);
#412=LINE('',#990,#458);
#413=LINE('',#992,#459);
#414=LINE('',#994,#460);
#415=LINE('',#997,#461);
#416=LINE('',#999,#462);
#417=LINE('',#1001,#463);
#418=LINE('',#1003,#464);
#419=LINE('',#1006,#465);
#420=LINE('',#1008,#466);
#421=LINE('',#1010,#467);
#422=LINE('',#1012,#468);
#423=LINE('',#1014,#469);
#424=LINE('',#1016,#470);
#425=LINE('',#1018,#471);
#426=LINE('',#1020,#472);
#427=LINE('',#1023,#473);
#428=LINE('',#1025,#474);
#429=LINE('',#1027,#475);
#430=LINE('',#1029,#476);
#431=LINE('',#1031,#477);
#432=LINE('',#1033,#478);
#433=LINE('',#1035,#479);
#434=VECTOR('',#723,1.);
#435=VECTOR('',#724,1.);
#436=VECTOR('',#725,1.);
#437=VECTOR('',#726,1.);
#438=VECTOR('',#729,1.);
#439=VECTOR('',#730,1.);
#440=VECTOR('',#731,1.);
#441=VECTOR('',#732,1.);
#442=VECTOR('',#735,1.);
#443=VECTOR('',#736,1.);
#444=VECTOR('',#737,1.);
#445=VECTOR('',#738,1.);
#446=VECTOR('',#741,1.);
#447=VECTOR('',#742,1.);
#448=VECTOR('',#743,1.);
#449=VECTOR('',#744,1.);
#450=VECTOR('',#747,1.);
#451=VECTOR('',#748,1.);
#452=VECTOR('',#749,1.);
#453=VECTOR('',#750,1.);
#454=VECTOR('',#753,1.);
#455=VECTOR('',#754,1.);
#456=VECTOR('',#755,1.);
#457=VECTOR('',#758,1.);
#458=VECTOR('',#759,1.);
#459=VECTOR('',#760,1.);
#460=VECTOR('',#763,1.);
#461=VECTOR('',#764,1.);
#462=VECTOR('',#765,1.);
#463=VECTOR('',#766,1.);
#464=VECTOR('',#769,1.);
#465=VECTOR('',#770,1.);
#466=VECTOR('',#771,1.);
#467=VECTOR('',#772,1.);
#468=VECTOR('',#773,1.);
#469=VECTOR('',#774,1.);
#470=VECTOR('',#775,1.);
#471=VECTOR('',#776,1.);
#472=VECTOR('',#779,1.);
#473=VECTOR('',#780,1.);
#474=VECTOR('',#781,1.);
#475=VECTOR('',#782,1.);
#476=VECTOR('',#783,1.);
#477=VECTOR('',#784,1.);
#478=VECTOR('',#785,1.);
#479=VECTOR('',#786,1.);
#480=EDGE_LOOP('',(#86,#87,#88,#89));
#481=EDGE_LOOP('',(#90,#91,#92,#93));
#482=EDGE_LOOP('',(#94,#95,#96,#97));
#483=EDGE_LOOP('',(#98,#99,#100,#101));
#484=EDGE_LOOP('',(#102,#103,#104,#105));
#485=EDGE_LOOP('',(#106,#107,#108,#109));
#486=EDGE_LOOP('',(#110,#111,#112,#113));
#487=EDGE_LOOP('',(#114,#115,#116,#117));
#488=EDGE_LOOP('',(#118,#119,#120,#121,#122,#123,#124,#125));
#489=EDGE_LOOP('',(#126,#127,#128,#129,#130,#131,#132,#133));
#490=EDGE_LOOP('',(#134,#135,#136,#137));
#491=EDGE_LOOP('',(#138,#139,#140,#141));
#492=EDGE_LOOP('',(#142,#143,#144,#145));
#493=EDGE_LOOP('',(#146,#147,#148,#149));
#494=EDGE_LOOP('',(#150,#151,#152));
#495=EDGE_LOOP('',(#153,#154,#155));
#496=EDGE_LOOP('',(#156,#157,#158));
#497=EDGE_LOOP('',(#159,#160,#161));
#498=EDGE_LOOP('',(#162,#163,#164,#165));
#499=EDGE_LOOP('',(#166,#167,#168,#169));
#500=EDGE_LOOP('',(#170,#171,#172,#173));
#501=EDGE_LOOP('',(#174,#175,#176,#177));
#502=EDGE_LOOP('',(#178,#179,#180,#181));
#503=EDGE_LOOP('',(#182,#183,#184,#185));
#504=EDGE_LOOP('',(#186,#187,#188));
#505=EDGE_LOOP('',(#189,#190,#191));
#506=EDGE_LOOP('',(#192,#193,#194));
#507=EDGE_LOOP('',(#195,#196,#197));
#508=EDGE_LOOP('',(#198,#199,#200,#201));
#509=EDGE_LOOP('',(#202,#203,#204,#205));
#510=EDGE_LOOP('',(#206,#207,#208,#209));
#511=EDGE_LOOP('',(#210,#211,#212,#213));
#512=EDGE_LOOP('',(#214,#215,#216,#217));
#513=EDGE_LOOP('',(#218,#219,#220,#221));
#514=EDGE_LOOP('',(#222,#223,#224));
#515=EDGE_LOOP('',(#225,#226,#227));
#516=EDGE_LOOP('',(#228,#229,#230,#231));
#517=EDGE_LOOP('',(#232,#233,#234,#235));
#518=EDGE_LOOP('',(#236,#237,#238,#239));
#519=EDGE_LOOP('',(#240,#241,#242,#243));
#520=EDGE_LOOP('',(#244,#245,#246,#247));
#521=EDGE_LOOP('',(#248,#249,#250));
#522=EDGE_LOOP('',(#251,#252,#253));
#523=EDGE_LOOP('',(#254,#255,#256,#257));
#524=FACE_BOUND('',#480,.T.);
#525=FACE_BOUND('',#481,.T.);
#526=FACE_BOUND('',#482,.T.);
#527=FACE_BOUND('',#483,.T.);
#528=FACE_BOUND('',#484,.T.);
#529=FACE_BOUND('',#485,.T.);
#530=FACE_BOUND('',#486,.T.);
#531=FACE_BOUND('',#487,.T.);
#532=FACE_BOUND('',#488,.T.);
#533=FACE_BOUND('',#489,.T.);
#534=FACE_BOUND('',#490,.T.);
#535=FACE_BOUND('',#491,.T.);
#536=FACE_BOUND('',#492,.T.);
#537=FACE_BOUND('',#493,.T.);
#538=FACE_BOUND('',#494,.T.);
#539=FACE_BOUND('',#495,.T.);
#540=FACE_BOUND('',#496,.T.);
#541=FACE_BOUND('',#497,.T.);
#542=FACE_BOUND('',#498,.T.);
#543=FACE_BOUND('',#499,.T.);
#544=FACE_BOUND('',#500,.T.);
#545=FACE_BOUND('',#501,.T.);
#546=FACE_BOUND('',#502,.T.);
#547=FACE_BOUND('',#503,.T.);
#548=FACE_BOUND('',#504,.T.);
#549=FACE_BOUND('',#505,.T.);
#550=FACE_BOUND('',#506,.T.);
#551=FACE_BOUND('',#507,.T.);
#552=FACE_BOUND('',#508,.T.);
#553=FACE_BOUND('',#509,.T.);
#554=FACE_BOUND('',#510,.T.);
#555=FACE_BOUND('',#511,.T.);
#556=FACE_BOUND('',#512,.T.);
#557=FACE_BOUND('',#513,.T.);
#558=FACE_BOUND('',#514,.T.);
#559=FACE_BOUND('',#515,.T.);
#560=FACE_BOUND('',#516,.T.);
#561=FACE_BOUND('',#517,.T.);
#562=FACE_BOUND('',#518,.T.);
#563=FACE_BOUND('',#519,.T.);
#564=FACE_BOUND('',#520,.T.);
#565=FACE_BOUND('',#521,.T.);
#566=FACE_BOUND('',#522,.T.);
#567=FACE_BOUND('',#523,.T.);
#568=PLANE('',#635);
#569=PLANE('',#636);
#570=PLANE('',#637);
#571=PLANE('',#638);
#572=PLANE('',#639);
#573=PLANE('',#640);
#574=PLANE('',#641);
#575=PLANE('',#642);
#576=PLANE('',#643);
#577=PLANE('',#644);
#578=ADVANCED_FACE('',(#524),#568,.T.);
#579=ADVANCED_FACE('',(#525),#569,.F.);
#580=ADVANCED_FACE('',(#526),#570,.F.);
#581=ADVANCED_FACE('',(#527),#571,.F.);
#582=ADVANCED_FACE('',(#528),#572,.T.);
#583=ADVANCED_FACE('',(#529),#573,.T.);
#584=ADVANCED_FACE('',(#530),#574,.T.);
#585=ADVANCED_FACE('',(#531),#575,.T.);
#586=ADVANCED_FACE('',(#532),#576,.T.);
#587=ADVANCED_FACE('',(#533),#577,.F.);
#588=ADVANCED_FACE('',(#534),#64,.T.);
#589=ADVANCED_FACE('',(#535),#65,.T.);
#590=ADVANCED_FACE('',(#536),#66,.T.);
#591=ADVANCED_FACE('',(#537),#67,.T.);
#592=ADVANCED_FACE('',(#538),#16,.T.);
#593=ADVANCED_FACE('',(#539),#17,.T.);
#594=ADVANCED_FACE('',(#540),#18,.T.);
#595=ADVANCED_FACE('',(#541),#19,.T.);
#596=ADVANCED_FACE('',(#542),#68,.T.);
#597=ADVANCED_FACE('',(#543),#69,.T.);
#598=ADVANCED_FACE('',(#544),#70,.T.);
#599=ADVANCED_FACE('',(#545),#71,.T.);
#600=ADVANCED_FACE('',(#546),#72,.T.);
#601=ADVANCED_FACE('',(#547),#73,.T.);
#602=ADVANCED_FACE('',(#548),#20,.T.);
#603=ADVANCED_FACE('',(#549),#21,.T.);
#604=ADVANCED_FACE('',(#550),#22,.T.);
#605=ADVANCED_FACE('',(#551),#23,.T.);
#606=ADVANCED_FACE('',(#552),#74,.T.);
#607=ADVANCED_FACE('',(#553),#75,.T.);
#608=ADVANCED_FACE('',(#554),#76,.T.);
#609=ADVANCED_FACE('',(#555),#77,.T.);
#610=ADVANCED_FACE('',(#556),#78,.T.);
#611=ADVANCED_FACE('',(#557),#79,.T.);
#612=ADVANCED_FACE('',(#558),#24,.T.);
#613=ADVANCED_FACE('',(#559),#25,.T.);
#614=ADVANCED_FACE('',(#560),#80,.T.);
#615=ADVANCED_FACE('',(#561),#81,.T.);
#616=ADVANCED_FACE('',(#562),#82,.T.);
#617=ADVANCED_FACE('',(#563),#83,.T.);
#618=ADVANCED_FACE('',(#564),#84,.T.);
#619=ADVANCED_FACE('',(#565),#26,.T.);
#620=ADVANCED_FACE('',(#566),#27,.T.);
#621=ADVANCED_FACE('',(#567),#85,.T.);
#622=CLOSED_SHELL('',(#578,#579,#580,#581,#582,#583,#584,#585,#586,#587,
#588,#589,#590,#591,#592,#593,#594,#595,#596,#597,#598,#599,#600,#601,#602,
#603,#604,#605,#606,#607,#608,#609,#610,#611,#612,#613,#614,#615,#616,#617,
#618,#619,#620,#621));
#623=STYLED_ITEM('',(#624),#631);
#624=PRESENTATION_STYLE_ASSIGNMENT((#625));
#625=SURFACE_STYLE_USAGE(.BOTH.,#626);
#626=SURFACE_SIDE_STYLE('',(#627));
#627=SURFACE_STYLE_FILL_AREA(#628);
#628=FILL_AREA_STYLE('',(#629));
#629=FILL_AREA_STYLE_COLOUR('',#630);
#630=COLOUR_RGB('',0.615686274509804,0.811764705882353,0.929411764705882);
#631=MANIFOLD_SOLID_BREP('Part 1',#622);
#632=SHAPE_DEFINITION_REPRESENTATION(#1116,#633);
#633=SHAPE_REPRESENTATION('Part 1',(#634),#1111);
#634=AXIS2_PLACEMENT_3D('',#935,#719,#720);
#635=AXIS2_PLACEMENT_3D('',#936,#721,#722);
#636=AXIS2_PLACEMENT_3D('',#945,#727,#728);
#637=AXIS2_PLACEMENT_3D('',#954,#733,#734);
#638=AXIS2_PLACEMENT_3D('',#963,#739,#740);
#639=AXIS2_PLACEMENT_3D('',#972,#745,#746);
#640=AXIS2_PLACEMENT_3D('',#981,#751,#752);
#641=AXIS2_PLACEMENT_3D('',#987,#756,#757);
#642=AXIS2_PLACEMENT_3D('',#993,#761,#762);
#643=AXIS2_PLACEMENT_3D('',#1002,#767,#768);
#644=AXIS2_PLACEMENT_3D('',#1019,#777,#778);
#645=AXIS2_PLACEMENT_3D('',#1036,#787,#788);
#646=AXIS2_PLACEMENT_3D('',#1037,#789,#790);
#647=AXIS2_PLACEMENT_3D('',#1038,#791,#792);
#648=AXIS2_PLACEMENT_3D('',#1039,#793,#794);
#649=AXIS2_PLACEMENT_3D('',#1040,#795,#796);
#650=AXIS2_PLACEMENT_3D('',#1041,#797,#798);
#651=AXIS2_PLACEMENT_3D('',#1042,#799,#800);
#652=AXIS2_PLACEMENT_3D('',#1043,#801,#802);
#653=AXIS2_PLACEMENT_3D('',#1044,#803,#804);
#654=AXIS2_PLACEMENT_3D('',#1045,#805,#806);
#655=AXIS2_PLACEMENT_3D('',#1046,#807,#808);
#656=AXIS2_PLACEMENT_3D('',#1047,#809,#810);
#657=AXIS2_PLACEMENT_3D('',#1048,#811,#812);
#658=AXIS2_PLACEMENT_3D('',#1049,#813,#814);
#659=AXIS2_PLACEMENT_3D('',#1050,#815,#816);
#660=AXIS2_PLACEMENT_3D('',#1051,#817,#818);
#661=AXIS2_PLACEMENT_3D('',#1052,#819,#820);
#662=AXIS2_PLACEMENT_3D('',#1053,#821,#822);
#663=AXIS2_PLACEMENT_3D('',#1054,#823,#824);
#664=AXIS2_PLACEMENT_3D('',#1055,#825,#826);
#665=AXIS2_PLACEMENT_3D('',#1056,#827,#828);
#666=AXIS2_PLACEMENT_3D('',#1057,#829,#830);
#667=AXIS2_PLACEMENT_3D('',#1058,#831,#832);
#668=AXIS2_PLACEMENT_3D('',#1059,#833,#834);
#669=AXIS2_PLACEMENT_3D('',#1060,#835,#836);
#670=AXIS2_PLACEMENT_3D('',#1061,#837,#838);
#671=AXIS2_PLACEMENT_3D('',#1062,#839,#840);
#672=AXIS2_PLACEMENT_3D('',#1063,#841,#842);
#673=AXIS2_PLACEMENT_3D('',#1064,#843,#844);
#674=AXIS2_PLACEMENT_3D('',#1065,#845,#846);
#675=AXIS2_PLACEMENT_3D('',#1066,#847,#848);
#676=AXIS2_PLACEMENT_3D('',#1067,#849,#850);
#677=AXIS2_PLACEMENT_3D('',#1068,#851,#852);
#678=AXIS2_PLACEMENT_3D('',#1069,#853,#854);
#679=AXIS2_PLACEMENT_3D('',#1070,#855,#856);
#680=AXIS2_PLACEMENT_3D('',#1071,#857,#858);
#681=AXIS2_PLACEMENT_3D('',#1072,#859,#860);
#682=AXIS2_PLACEMENT_3D('',#1073,#861,#862);
#683=AXIS2_PLACEMENT_3D('',#1074,#863,#864);
#684=AXIS2_PLACEMENT_3D('',#1075,#865,#866);
#685=AXIS2_PLACEMENT_3D('',#1076,#867,#868);
#686=AXIS2_PLACEMENT_3D('',#1077,#869,#870);
#687=AXIS2_PLACEMENT_3D('',#1078,#871,#872);
#688=AXIS2_PLACEMENT_3D('',#1079,#873,#874);
#689=AXIS2_PLACEMENT_3D('',#1080,#875,#876);
#690=AXIS2_PLACEMENT_3D('',#1081,#877,#878);
#691=AXIS2_PLACEMENT_3D('',#1082,#879,#880);
#692=AXIS2_PLACEMENT_3D('',#1083,#881,#882);
#693=AXIS2_PLACEMENT_3D('',#1084,#883,#884);
#694=AXIS2_PLACEMENT_3D('',#1085,#885,#886);
#695=AXIS2_PLACEMENT_3D('',#1086,#887,#888);
#696=AXIS2_PLACEMENT_3D('',#1087,#889,#890);
#697=AXIS2_PLACEMENT_3D('',#1088,#891,#892);
#698=AXIS2_PLACEMENT_3D('',#1089,#893,#894);
#699=AXIS2_PLACEMENT_3D('',#1090,#895,#896);
#700=AXIS2_PLACEMENT_3D('',#1091,#897,#898);
#701=AXIS2_PLACEMENT_3D('',#1092,#899,#900);
#702=AXIS2_PLACEMENT_3D('',#1093,#901,#902);
#703=AXIS2_PLACEMENT_3D('',#1094,#903,#904);
#704=AXIS2_PLACEMENT_3D('',#1095,#905,#906);
#705=AXIS2_PLACEMENT_3D('',#1096,#907,#908);
#706=AXIS2_PLACEMENT_3D('',#1097,#909,#910);
#707=AXIS2_PLACEMENT_3D('',#1098,#911,#912);
#708=AXIS2_PLACEMENT_3D('',#1099,#913,#914);
#709=AXIS2_PLACEMENT_3D('',#1100,#915,#916);
#710=AXIS2_PLACEMENT_3D('',#1101,#917,#918);
#711=AXIS2_PLACEMENT_3D('',#1102,#919,#920);
#712=AXIS2_PLACEMENT_3D('',#1103,#921,#922);
#713=AXIS2_PLACEMENT_3D('',#1104,#923,#924);
#714=AXIS2_PLACEMENT_3D('',#1105,#925,#926);
#715=AXIS2_PLACEMENT_3D('',#1106,#927,#928);
#716=AXIS2_PLACEMENT_3D('',#1107,#929,#930);
#717=AXIS2_PLACEMENT_3D('',#1108,#931,#932);
#718=AXIS2_PLACEMENT_3D('',#1109,#933,#934);
#719=DIRECTION('',(0.,0.,1.));
#720=DIRECTION('',(1.,0.,0.));
#721=DIRECTION('',(-1.,0.,0.));
#722=DIRECTION('',(0.,0.,1.));
#723=DIRECTION('',(0.,1.,0.));
#724=DIRECTION('',(0.,0.,1.));
#725=DIRECTION('',(0.,1.,0.));
#726=DIRECTION('',(0.,0.,1.));
#727=DIRECTION('',(-3.08395284618099E-16,0.,1.));
#728=DIRECTION('',(1.,0.,3.08395284618099E-16));
#729=DIRECTION('',(1.,0.,3.08395284618099E-16));
#730=DIRECTION('',(0.,1.,0.));
#731=DIRECTION('',(1.,0.,3.08395284618099E-16));
#732=DIRECTION('',(0.,1.,0.));
#733=DIRECTION('',(-1.,0.,-4.62592926927149E-16));
#734=DIRECTION('',(-4.62592926927149E-16,0.,1.));
#735=DIRECTION('',(-4.62592926927149E-16,0.,1.));
#736=DIRECTION('',(0.,1.,0.));
#737=DIRECTION('',(-4.62592926927149E-16,0.,1.));
#738=DIRECTION('',(0.,1.,0.));
#739=DIRECTION('',(0.,0.,-1.));
#740=DIRECTION('',(-1.,0.,0.));
#741=DIRECTION('',(-1.,0.,0.));
#742=DIRECTION('',(0.,1.,0.));
#743=DIRECTION('',(-1.,0.,0.));
#744=DIRECTION('',(0.,1.,0.));
#745=DIRECTION('',(-1.,0.,-3.85494105772624E-16));
#746=DIRECTION('',(-3.85494105772624E-16,0.,1.));
#747=DIRECTION('',(0.,1.,0.));
#748=DIRECTION('',(-3.85494105772624E-16,0.,1.));
#749=DIRECTION('',(0.,1.,0.));
#750=DIRECTION('',(-3.85494105772624E-16,0.,1.));
#751=DIRECTION('',(-1.54197642309049E-16,0.,1.));
#752=DIRECTION('',(1.,0.,1.54197642309049E-16));
#753=DIRECTION('',(1.,0.,1.54197642309049E-16));
#754=DIRECTION('',(0.,1.,0.));
#755=DIRECTION('',(1.,0.,1.54197642309049E-16));
#756=DIRECTION('',(1.,0.,3.08395284618099E-16));
#757=DIRECTION('',(3.08395284618099E-16,0.,-1.));
#758=DIRECTION('',(3.08395284618099E-16,0.,-1.));
#759=DIRECTION('',(0.,1.,0.));
#760=DIRECTION('',(3.08395284618099E-16,0.,-1.));
#761=DIRECTION('',(0.,0.,1.));
#762=DIRECTION('',(1.,0.,0.));
#763=DIRECTION('',(0.,1.,0.));
#764=DIRECTION('',(1.,0.,0.));
#765=DIRECTION('',(0.,1.,0.));
#766=DIRECTION('',(1.,0.,0.));
#767=DIRECTION('',(0.,-1.,0.));
#768=DIRECTION('',(1.,0.,0.));
#769=DIRECTION('',(-3.85494105772624E-16,0.,1.));
#770=DIRECTION('',(1.,0.,1.54197642309049E-16));
#771=DIRECTION('',(3.08395284618099E-16,0.,-1.));
#772=DIRECTION('',(1.,0.,0.));
#773=DIRECTION('',(0.,0.,1.));
#774=DIRECTION('',(1.,0.,3.08395284618099E-16));
#775=DIRECTION('',(-4.62592926927149E-16,0.,1.));
#776=DIRECTION('',(-1.,0.,0.));
#777=DIRECTION('',(0.,-1.,0.));
#778=DIRECTION('',(1.,0.,0.));
#779=DIRECTION('',(3.08395284618099E-16,0.,-1.));
#780=DIRECTION('',(1.,0.,1.54197642309049E-16));
#781=DIRECTION('',(-3.85494105772624E-16,0.,1.));
#782=DIRECTION('',(-1.,0.,0.));
#783=DIRECTION('',(-4.62592926927149E-16,0.,1.));
#784=DIRECTION('',(1.,0.,3.08395284618099E-16));
#785=DIRECTION('',(0.,0.,1.));
#786=DIRECTION('',(1.,0.,0.));
#787=DIRECTION('',(4.62592926927149E-16,0.,-1.));
#788=DIRECTION('',(-1.,0.,-4.62592926927149E-16));
#789=DIRECTION('',(0.,0.,-1.));
#790=DIRECTION('',(-1.,0.,0.));
#791=DIRECTION('',(0.,0.,1.));
#792=DIRECTION('',(1.,0.,0.));
#793=DIRECTION('',(0.,1.,0.));
#794=DIRECTION('',(0.,0.,1.));
#795=DIRECTION('',(0.,1.,0.));
#796=DIRECTION('',(0.,0.,1.));
#797=DIRECTION('',(0.,-1.,0.));
#798=DIRECTION('',(0.,0.,-1.));
#799=DIRECTION('',(-4.62592926927149E-16,0.,1.));
#800=DIRECTION('',(1.,0.,4.62592926927149E-16));
#801=DIRECTION('',(0.,0.,1.));
#802=DIRECTION('',(1.,0.,0.));
#803=DIRECTION('',(0.,0.,-1.));
#804=DIRECTION('',(-1.,0.,0.));
#805=DIRECTION('',(0.,1.,0.));
#806=DIRECTION('',(0.,0.,1.));
#807=DIRECTION('',(0.,-1.,0.));
#808=DIRECTION('',(0.,0.,-1.));
#809=DIRECTION('',(0.,1.,0.));
#810=DIRECTION('',(0.,0.,1.));
#811=DIRECTION('',(1.,0.,0.));
#812=DIRECTION('',(0.,0.,-1.));
#813=DIRECTION('',(1.,5.55111512312578E-15,0.));
#814=DIRECTION('',(-5.55111512312578E-15,1.,0.));
#815=DIRECTION('',(1.,0.,0.));
#816=DIRECTION('',(0.,0.,-1.));
#817=DIRECTION('',(1.,0.,-5.55111512312578E-15));
#818=DIRECTION('',(-5.55111512312578E-15,0.,-1.));
#819=DIRECTION('',(1.,0.,0.));
#820=DIRECTION('',(0.,0.,-1.));
#821=DIRECTION('',(1.,0.,0.));
#822=DIRECTION('',(0.,0.,-1.));
#823=DIRECTION('',(1.,0.,0.));
#824=DIRECTION('',(0.,0.,-1.));
#825=DIRECTION('',(1.,0.,0.));
#826=DIRECTION('',(0.,0.,-1.));
#827=DIRECTION('',(1.,0.,0.));
#828=DIRECTION('',(0.,0.,-1.));
#829=DIRECTION('',(-1.,0.,0.));
#830=DIRECTION('',(0.,0.,1.));
#831=DIRECTION('',(-1.,0.,-3.08395284618099E-16));
#832=DIRECTION('',(-3.08395284618099E-16,0.,1.));
#833=DIRECTION('',(-1.,0.,0.));
#834=DIRECTION('',(0.,0.,1.));
#835=DIRECTION('',(0.,-1.,0.));
#836=DIRECTION('',(0.,0.,-1.));
#837=DIRECTION('',(0.,1.,0.));
#838=DIRECTION('',(0.,0.,1.));
#839=DIRECTION('',(0.,-1.,0.));
#840=DIRECTION('',(0.,0.,-1.));
#841=DIRECTION('',(1.,0.,3.08395284618099E-16));
#842=DIRECTION('',(3.08395284618099E-16,0.,-1.));
#843=DIRECTION('',(-1.,0.,0.));
#844=DIRECTION('',(0.,0.,1.));
#845=DIRECTION('',(-1.,0.,0.));
#846=DIRECTION('',(0.,0.,1.));
#847=DIRECTION('',(-1.,-2.77555756156289E-15,0.));
#848=DIRECTION('',(2.77555756156289E-15,-1.,0.));
#849=DIRECTION('',(0.,-1.,0.));
#850=DIRECTION('',(0.,0.,-1.));
#851=DIRECTION('',(0.,-1.,0.));
#852=DIRECTION('',(0.,0.,-1.));
#853=DIRECTION('',(0.,1.,0.));
#854=DIRECTION('',(0.,0.,1.));
#855=DIRECTION('',(0.,0.,1.));
#856=DIRECTION('',(1.,0.,0.));
#857=DIRECTION('',(0.,0.,1.));
#858=DIRECTION('',(1.,0.,0.));
#859=DIRECTION('',(0.,0.,-1.));
#860=DIRECTION('',(-1.,0.,0.));
#861=DIRECTION('',(0.,0.,-1.));
#862=DIRECTION('',(-1.,0.,0.));
#863=DIRECTION('',(0.,0.,-1.));
#864=DIRECTION('',(-1.,0.,0.));
#865=DIRECTION('',(0.,0.,-1.));
#866=DIRECTION('',(-1.,0.,0.));
#867=DIRECTION('',(0.,0.,1.));
#868=DIRECTION('',(1.,0.,0.));
#869=DIRECTION('',(0.,0.,1.));
#870=DIRECTION('',(1.,0.,0.));
#871=DIRECTION('',(-3.85494105772624E-16,0.,1.));
#872=DIRECTION('',(1.,0.,3.85494105772624E-16));
#873=DIRECTION('',(0.707106781186547,0.,0.707106781186548));
#874=DIRECTION('',(-0.707106781186548,0.,0.707106781186547));
#875=DIRECTION('',(0.,0.,1.));
#876=DIRECTION('',(1.,0.,0.));
#877=DIRECTION('',(0.,0.,1.));
#878=DIRECTION('',(1.,0.,0.));
#879=DIRECTION('',(0.,1.,0.));
#880=DIRECTION('',(0.,0.,1.));
#881=DIRECTION('',(0.,1.,0.));
#882=DIRECTION('',(0.,0.,1.));
#883=DIRECTION('',(0.,-1.,0.));
#884=DIRECTION('',(0.,0.,-1.));
#885=DIRECTION('',(0.,0.,-1.));
#886=DIRECTION('',(-1.,0.,0.));
#887=DIRECTION('',(0.,0.,1.));
#888=DIRECTION('',(1.,0.,0.));
#889=DIRECTION('',(3.85494105772624E-16,0.,-1.));
#890=DIRECTION('',(-1.,0.,-3.85494105772624E-16));
#891=DIRECTION('',(-0.707106781186547,0.,-0.707106781186548));
#892=DIRECTION('',(0.707106781186548,0.,-0.707106781186547));
#893=DIRECTION('',(1.,0.,1.54197642309049E-16));
#894=DIRECTION('',(1.54197642309049E-16,0.,-1.));
#895=DIRECTION('',(0.707106781186548,0.,-0.707106781186547));
#896=DIRECTION('',(-0.707106781186547,0.,-0.707106781186548));
#897=DIRECTION('',(-1.,0.,0.));
#898=DIRECTION('',(0.,0.,1.));
#899=DIRECTION('',(-1.,0.,0.));
#900=DIRECTION('',(0.,0.,1.));
#901=DIRECTION('',(-1.,0.,0.));
#902=DIRECTION('',(0.,0.,1.));
#903=DIRECTION('',(-1.,0.,0.));
#904=DIRECTION('',(0.,0.,1.));
#905=DIRECTION('',(-1.,0.,-1.54197642309049E-16));
#906=DIRECTION('',(-1.54197642309049E-16,0.,1.));
#907=DIRECTION('',(-0.707106781186548,0.,0.707106781186547));
#908=DIRECTION('',(0.707106781186547,0.,0.707106781186548));
#909=DIRECTION('',(3.08395284618099E-16,0.,-1.));
#910=DIRECTION('',(-1.,0.,-3.08395284618099E-16));
#911=DIRECTION('',(0.,0.,1.));
#912=DIRECTION('',(1.,0.,0.));
#913=DIRECTION('',(1.,0.,0.));
#914=DIRECTION('',(0.,0.,-1.));
#915=DIRECTION('',(1.,0.,0.));
#916=DIRECTION('',(0.,0.,-1.));
#917=DIRECTION('',(-1.,0.,0.));
#918=DIRECTION('',(0.,0.,1.));
#919=DIRECTION('',(1.,0.,0.));
#920=DIRECTION('',(0.,0.,-1.));
#921=DIRECTION('',(-3.08395284618099E-16,0.,1.));
#922=DIRECTION('',(1.,0.,3.08395284618099E-16));
#923=DIRECTION('',(0.,0.,1.));
#924=DIRECTION('',(1.,0.,0.));
#925=DIRECTION('',(0.,-1.,0.));
#926=DIRECTION('',(0.,0.,-1.));
#927=DIRECTION('',(0.,-1.,0.));
#928=DIRECTION('',(0.,0.,-1.));
#929=DIRECTION('',(0.,1.,0.));
#930=DIRECTION('',(0.,0.,1.));
#931=DIRECTION('',(0.,1.,0.));
#932=DIRECTION('',(0.,0.,1.));
#933=DIRECTION('',(0.,1.,0.));
#934=DIRECTION('',(0.,0.,1.));
#935=CARTESIAN_POINT('',(0.,0.,0.));
#936=CARTESIAN_POINT('',(-0.18,-0.1,0.0470394616326951));
#937=CARTESIAN_POINT('',(-0.18,-0.1,0.132039461632695));
#938=CARTESIAN_POINT('',(-0.18,-0.095,0.132039461632695));
#939=CARTESIAN_POINT('',(-0.18,0.095,0.132039461632695));
#940=CARTESIAN_POINT('',(-0.18,0.095,-0.262960538367305));
#941=CARTESIAN_POINT('',(-0.18,0.095,-0.257960538367305));
#942=CARTESIAN_POINT('',(-0.18,-0.1,-0.257960538367305));
#943=CARTESIAN_POINT('',(-0.18,-0.095,-0.257960538367305));
#944=CARTESIAN_POINT('',(-0.18,-0.095,0.0470394616326951));
#945=CARTESIAN_POINT('',(0.,-0.1,-0.262960538367305));
#946=CARTESIAN_POINT('',(-0.18,-0.095,-0.262960538367305));
#947=CARTESIAN_POINT('',(0.175,-0.095,-0.262960538367305));
#948=CARTESIAN_POINT('',(-0.175,-0.095,-0.262960538367305));
#949=CARTESIAN_POINT('',(-0.175,0.1,-0.262960538367305));
#950=CARTESIAN_POINT('',(-0.175,0.095,-0.262960538367305));
#951=CARTESIAN_POINT('',(0.,0.095,-0.262960538367305));
#952=CARTESIAN_POINT('',(0.175,0.095,-0.262960538367305));
#953=CARTESIAN_POINT('',(0.175,-0.1,-0.262960538367305));
#954=CARTESIAN_POINT('',(0.18,-0.1,0.0470394616326951));
#955=CARTESIAN_POINT('',(0.18,-0.095,-0.262960538367305));
#956=CARTESIAN_POINT('',(0.18,-0.095,0.132039461632695));
#957=CARTESIAN_POINT('',(0.18,-0.095,-0.257960538367305));
#958=CARTESIAN_POINT('',(0.18,-0.1,-0.257960538367305));
#959=CARTESIAN_POINT('',(0.18,0.095,-0.257960538367305));
#960=CARTESIAN_POINT('',(0.18,0.095,0.0470394616326951));
#961=CARTESIAN_POINT('',(0.18,0.095,0.132039461632695));
#962=CARTESIAN_POINT('',(0.18,-0.1,0.132039461632695));
#963=CARTESIAN_POINT('',(0.135,-0.1,0.137039461632695));
#964=CARTESIAN_POINT('',(0.135,0.095,0.137039461632695));
#965=CARTESIAN_POINT('',(0.175,0.095,0.137039461632695));
#966=CARTESIAN_POINT('',(0.095,0.095,0.137039461632695));
#967=CARTESIAN_POINT('',(0.095,-0.1,0.137039461632695));
#968=CARTESIAN_POINT('',(0.095,-0.095,0.137039461632695));
#969=CARTESIAN_POINT('',(0.18,-0.095,0.137039461632695));
#970=CARTESIAN_POINT('',(0.175,-0.095,0.137039461632695));
#971=CARTESIAN_POINT('',(0.175,-0.1,0.137039461632695));
#972=CARTESIAN_POINT('',(0.09,-0.1,0.0470394616326951));
#973=CARTESIAN_POINT('',(0.09,0.1,0.132039461632695));
#974=CARTESIAN_POINT('',(0.09,-0.095,0.132039461632695));
#975=CARTESIAN_POINT('',(0.09,0.095,0.132039461632695));
#976=CARTESIAN_POINT('',(0.09,0.095,-0.0429605383673049));
#977=CARTESIAN_POINT('',(0.09,0.095,-0.0429605383673049));
#978=CARTESIAN_POINT('',(0.09,-0.1,-0.0429605383673049));
#979=CARTESIAN_POINT('',(0.09,-0.095,-0.0429605383673049));
#980=CARTESIAN_POINT('',(0.09,-0.095,0.0470394616326951));
#981=CARTESIAN_POINT('',(2.77555756156289E-17,-0.1,-0.0429605383673049));
#982=CARTESIAN_POINT('',(-0.09,0.095,-0.0429605383673049));
#983=CARTESIAN_POINT('',(-0.09,0.095,-0.0429605383673049));
#984=CARTESIAN_POINT('',(-0.09,-0.1,-0.0429605383673049));
#985=CARTESIAN_POINT('',(-0.09,-0.095,-0.0429605383673049));
#986=CARTESIAN_POINT('',(2.77555756156289E-17,-0.095,-0.0429605383673049));
#987=CARTESIAN_POINT('',(-0.09,-0.1,0.0470394616326951));
#988=CARTESIAN_POINT('',(-0.09,0.095,0.137039461632695));
#989=CARTESIAN_POINT('',(-0.09,0.095,0.132039461632695));
#990=CARTESIAN_POINT('',(-0.09,-0.1,0.132039461632695));
#991=CARTESIAN_POINT('',(-0.09,-0.095,0.132039461632695));
#992=CARTESIAN_POINT('',(-0.09,-0.095,0.0470394616326951));
#993=CARTESIAN_POINT('',(-0.135,-0.1,0.137039461632695));
#994=CARTESIAN_POINT('',(-0.095,-0.1,0.137039461632695));
#995=CARTESIAN_POINT('',(-0.095,-0.095,0.137039461632695));
#996=CARTESIAN_POINT('',(-0.095,0.095,0.137039461632695));
#997=CARTESIAN_POINT('',(-0.18,0.095,0.137039461632695));
#998=CARTESIAN_POINT('',(-0.175,0.095,0.137039461632695));
#999=CARTESIAN_POINT('',(-0.175,-0.1,0.137039461632695));
#1000=CARTESIAN_POINT('',(-0.175,-0.095,0.137039461632695));
#1001=CARTESIAN_POINT('',(-0.135,-0.095,0.137039461632695));
#1002=CARTESIAN_POINT('',(0.,-0.1,-0.0629605383673049));
#1003=CARTESIAN_POINT('',(0.095,-0.1,-0.0629605383673049));
#1004=CARTESIAN_POINT('',(0.095,-0.1,0.132039461632695));
#1005=CARTESIAN_POINT('',(0.095,-0.1,-0.0479605383673049));
#1006=CARTESIAN_POINT('',(-2.31296463463575E-18,-0.1,-0.0479605383673049));
#1007=CARTESIAN_POINT('',(-0.095,-0.1,-0.0479605383673049));
#1008=CARTESIAN_POINT('',(-0.095,-0.1,-0.062960538367305));
#1009=CARTESIAN_POINT('',(-0.095,-0.1,0.132039461632695));
#1010=CARTESIAN_POINT('',(0.,-0.1,0.132039461632695));
#1011=CARTESIAN_POINT('',(-0.175,-0.1,0.132039461632695));
#1012=CARTESIAN_POINT('',(-0.175,-0.1,-0.0629605383673049));
#1013=CARTESIAN_POINT('',(-0.175,-0.1,-0.257960538367305));
#1014=CARTESIAN_POINT('',(0.18,-0.1,-0.257960538367305));
#1015=CARTESIAN_POINT('',(0.175,-0.1,-0.257960538367305));
#1016=CARTESIAN_POINT('',(0.175,-0.1,0.137039461632695));
#1017=CARTESIAN_POINT('',(0.175,-0.1,0.132039461632695));
#1018=CARTESIAN_POINT('',(0.09,-0.1,0.132039461632695));
#1019=CARTESIAN_POINT('',(0.,0.1,-0.0629605383673049));
#1020=CARTESIAN_POINT('',(-0.095,0.1,-0.0429605383673049));
#1021=CARTESIAN_POINT('',(-0.095,0.1,0.132039461632695));
#1022=CARTESIAN_POINT('',(-0.095,0.1,-0.0479605383673049));
#1023=CARTESIAN_POINT('',(0.09,0.1,-0.0479605383673049));
#1024=CARTESIAN_POINT('',(0.095,0.1,-0.0479605383673049));
#1025=CARTESIAN_POINT('',(0.095,0.1,0.137039461632695));
#1026=CARTESIAN_POINT('',(0.095,0.1,0.132039461632695));
#1027=CARTESIAN_POINT('',(0.,0.1,0.132039461632695));
#1028=CARTESIAN_POINT('',(0.175,0.1,0.132039461632695));
#1029=CARTESIAN_POINT('',(0.175,0.1,-0.0629605383673048));
#1030=CARTESIAN_POINT('',(0.175,0.1,-0.257960538367305));
#1031=CARTESIAN_POINT('',(6.01370805005293E-17,0.1,-0.257960538367305));
#1032=CARTESIAN_POINT('',(-0.175,0.1,-0.257960538367305));
#1033=CARTESIAN_POINT('',(-0.175,0.1,0.137039461632695));
#1034=CARTESIAN_POINT('',(-0.175,0.1,0.132039461632695));
#1035=CARTESIAN_POINT('',(-0.09,0.1,0.132039461632695));
#1036=CARTESIAN_POINT('',(0.175,-0.095,-0.0629605383673048));
#1037=CARTESIAN_POINT('',(0.175,-0.095,-0.257960538367305));
#1038=CARTESIAN_POINT('',(0.175,-0.095,0.132039461632695));
#1039=CARTESIAN_POINT('',(0.175,-0.1,-0.257960538367305));
#1040=CARTESIAN_POINT('',(0.175,0.095,-0.257960538367305));
#1041=CARTESIAN_POINT('',(0.175,-0.095,-0.257960538367305));
#1042=CARTESIAN_POINT('',(0.175,0.095,0.0470394616326951));
#1043=CARTESIAN_POINT('',(0.175,0.095,0.132039461632695));
#1044=CARTESIAN_POINT('',(0.175,0.095,-0.257960538367305));
#1045=CARTESIAN_POINT('',(0.175,-0.1,0.132039461632695));
#1046=CARTESIAN_POINT('',(0.175,-0.095,0.132039461632695));
#1047=CARTESIAN_POINT('',(0.175,0.095,0.132039461632695));
#1048=CARTESIAN_POINT('',(0.175,-0.095,0.132039461632695));
#1049=CARTESIAN_POINT('',(0.175,-0.095,0.132039461632695));
#1050=CARTESIAN_POINT('',(0.175,-0.095,-0.257960538367305));
#1051=CARTESIAN_POINT('',(0.175,-0.095,-0.257960538367305));
#1052=CARTESIAN_POINT('',(0.175,0.095,-0.257960538367305));
#1053=CARTESIAN_POINT('',(0.175,0.095,-0.257960538367305));
#1054=CARTESIAN_POINT('',(0.175,0.095,0.132039461632695));
#1055=CARTESIAN_POINT('',(0.175,0.095,0.132039461632695));
#1056=CARTESIAN_POINT('',(0.,-0.095,0.132039461632695));
#1057=CARTESIAN_POINT('',(0.095,-0.095,0.132039461632695));
#1058=CARTESIAN_POINT('',(6.01370805005293E-17,-0.095,-0.257960538367305));
#1059=CARTESIAN_POINT('',(-0.175,-0.095,-0.257960538367305));
#1060=CARTESIAN_POINT('',(-0.175,-0.1,-0.257960538367305));
#1061=CARTESIAN_POINT('',(-0.175,0.095,-0.257960538367305));
#1062=CARTESIAN_POINT('',(-0.175,-0.095,-0.257960538367305));
#1063=CARTESIAN_POINT('',(-1.54197642309049E-18,0.095,-0.257960538367305));
#1064=CARTESIAN_POINT('',(-0.175,0.095,-0.257960538367305));
#1065=CARTESIAN_POINT('',(0.135,0.095,0.132039461632695));
#1066=CARTESIAN_POINT('',(0.095,0.095,0.132039461632695));
#1067=CARTESIAN_POINT('',(0.095,-0.1,0.132039461632695));
#1068=CARTESIAN_POINT('',(0.095,-0.095,0.132039461632695));
#1069=CARTESIAN_POINT('',(0.095,0.095,0.132039461632695));
#1070=CARTESIAN_POINT('',(0.095,-0.095,0.132039461632695));
#1071=CARTESIAN_POINT('',(0.095,-0.095,0.132039461632695));
#1072=CARTESIAN_POINT('',(-0.175,-0.095,-0.257960538367305));
#1073=CARTESIAN_POINT('',(-0.175,-0.095,-0.257960538367305));
#1074=CARTESIAN_POINT('',(-0.175,0.095,-0.257960538367305));
#1075=CARTESIAN_POINT('',(-0.175,0.095,-0.257960538367305));
#1076=CARTESIAN_POINT('',(0.095,0.095,0.132039461632695));
#1077=CARTESIAN_POINT('',(0.095,0.095,0.132039461632695));
#1078=CARTESIAN_POINT('',(0.095,-0.095,0.0470394616326951));
#1079=CARTESIAN_POINT('',(0.095,-0.095,-0.0479605383673049));
#1080=CARTESIAN_POINT('',(-0.175,-0.095,0.0470394616326951));
#1081=CARTESIAN_POINT('',(-0.175,-0.095,0.132039461632695));
#1082=CARTESIAN_POINT('',(-0.175,-0.1,0.132039461632695));
#1083=CARTESIAN_POINT('',(-0.175,0.095,0.132039461632695));
#1084=CARTESIAN_POINT('',(-0.175,-0.095,0.132039461632695));
#1085=CARTESIAN_POINT('',(-0.175,0.095,-0.0629605383673049));
#1086=CARTESIAN_POINT('',(-0.175,0.095,0.132039461632695));
#1087=CARTESIAN_POINT('',(0.095,0.095,-0.0629605383673049));
#1088=CARTESIAN_POINT('',(0.095,0.095,-0.0479605383673049));
#1089=CARTESIAN_POINT('',(2.85265638271741E-17,-0.095,-0.0479605383673049));
#1090=CARTESIAN_POINT('',(-0.095,-0.095,-0.0479605383673049));
#1091=CARTESIAN_POINT('',(-0.175,-0.095,0.132039461632695));
#1092=CARTESIAN_POINT('',(-0.175,-0.095,0.132039461632695));
#1093=CARTESIAN_POINT('',(-0.175,0.095,0.132039461632695));
#1094=CARTESIAN_POINT('',(-0.175,0.095,0.132039461632695));
#1095=CARTESIAN_POINT('',(-2.31296463463575E-18,0.095,-0.0479605383673049));
#1096=CARTESIAN_POINT('',(-0.095,0.095,-0.0479605383673049));
#1097=CARTESIAN_POINT('',(-0.095,-0.095,0.0470394616326951));
#1098=CARTESIAN_POINT('',(-0.095,-0.095,0.132039461632695));
#1099=CARTESIAN_POINT('',(-0.135,-0.095,0.132039461632695));
#1100=CARTESIAN_POINT('',(-0.095,-0.095,0.132039461632695));
#1101=CARTESIAN_POINT('',(0.,0.095,0.132039461632695));
#1102=CARTESIAN_POINT('',(-0.095,0.095,0.132039461632695));
#1103=CARTESIAN_POINT('',(-0.095,0.095,-0.062960538367305));
#1104=CARTESIAN_POINT('',(-0.095,0.095,0.132039461632695));
#1105=CARTESIAN_POINT('',(-0.095,-0.095,0.132039461632695));
#1106=CARTESIAN_POINT('',(-0.095,-0.095,0.132039461632695));
#1107=CARTESIAN_POINT('',(-0.095,0.095,0.132039461632695));
#1108=CARTESIAN_POINT('',(-0.095,0.095,0.132039461632695));
#1109=CARTESIAN_POINT('',(-0.095,-0.1,0.132039461632695));
#1110=MECHANICAL_DESIGN_GEOMETRIC_PRESENTATION_REPRESENTATION('',(#623),
#1111);
#1111=(
GEOMETRIC_REPRESENTATION_CONTEXT(3)
GLOBAL_UNCERTAINTY_ASSIGNED_CONTEXT((#1112))
GLOBAL_UNIT_ASSIGNED_CONTEXT((#1115,#1114,#1113))
REPRESENTATION_CONTEXT('Part 1','TOP_LEVEL_ASSEMBLY_PART')
);
#1112=UNCERTAINTY_MEASURE_WITH_UNIT(LENGTH_MEASURE(1.E-8),#1115,
'DISTANCE_ACCURACY_VALUE','Maximum Tolerance applied to model');
#1113=(
NAMED_UNIT(*)
SI_UNIT($,.STERADIAN.)
SOLID_ANGLE_UNIT()
);
#1114=(
NAMED_UNIT(*)
PLANE_ANGLE_UNIT()
SI_UNIT($,.RADIAN.)
);
#1115=(
LENGTH_UNIT()
NAMED_UNIT(*)
SI_UNIT($,.METRE.)
);
#1116=PRODUCT_DEFINITION_SHAPE('','',#1117);
#1117=PRODUCT_DEFINITION('','',#1119,#1118);
#1118=PRODUCT_DEFINITION_CONTEXT('',#1125,'design');
#1119=PRODUCT_DEFINITION_FORMATION_WITH_SPECIFIED_SOURCE('','',#1121,
 .NOT_KNOWN.);
#1120=PRODUCT_RELATED_PRODUCT_CATEGORY('','',(#1121));
#1121=PRODUCT('Part 1','Part 1','Part 1',(#1123));
#1122=PRODUCT_CATEGORY('','');
#1123=PRODUCT_CONTEXT('',#1125,'mechanical');
#1124=APPLICATION_PROTOCOL_DEFINITION('international standard',
'ap242_managed_model_based_3d_engineering',2020,#1125);
#1125=APPLICATION_CONTEXT('managed model based 3d engineering');
ENDSEC;
END-ISO-10303-21;
