ISO-10303-21;
HEADER;
/* Generated by software containing ST-Developer
 * from STEP Tools, Inc. (www.steptools.com) 
 */
/* OPTION: using custom renumber hook */

FILE_DESCRIPTION(
/* description */ ('STEP AP242 Edition 2',
'CAx-IF Rec.Pracs.---Representation and Presentation of Product Manufa
cturing Information (PMI)---4.0---2014-10-13',
'CAx-IF Rec.Pracs.---3D Tessellated Geometry---0.4---2014-09-14','2;1',
'CAx-IF Rec.Pracs.---User Defined Attributes---1.5---2016-08-15'),
/* implementation_level */ '2;1');

FILE_NAME(
/* name */ 'Part Studio 1',
/* time_stamp */ '2026-07-27T20:31:53Z',
/* author */ (''),
/* organization */ (''),
/* preprocessor_version */ 'ST-DEVELOPER v20',
/* originating_system */ 'ONSHAPE BY PTC INC, 1.218',
/* authorisation */ '  ');

FILE_SCHEMA (('AP242_MANAGED_MODEL_BASED_3D_ENGINEERING_MIM_LF { 1 0 10303 442 3 1 4 }'));
ENDSEC;

DATA;
#10=SHAPE_REPRESENTATION_RELATIONSHIP('','',#771,#11);
#11=ADVANCED_BREP_SHAPE_REPRESENTATION('',(#769),#1309);
#12=SPHERICAL_SURFACE('',#807,0.005);
#13=SPHERICAL_SURFACE('',#819,0.005);
#14=SPHERICAL_SURFACE('',#822,0.005);
#15=SPHERICAL_SURFACE('',#835,0.005);
#16=SPHERICAL_SURFACE('',#837,0.005);
#17=SPHERICAL_SURFACE('',#847,0.005);
#18=ELLIPSE('',#794,0.00707106781186547,0.005);
#19=ELLIPSE('',#795,0.00707106781186547,0.005);
#20=ELLIPSE('',#797,0.00707106781186547,0.005);
#21=ELLIPSE('',#798,0.00707106781186547,0.005);
#22=ELLIPSE('',#804,0.00707106781186547,0.005);
#23=ELLIPSE('',#806,0.00707106781186547,0.005);
#24=ELLIPSE('',#810,0.00707106781186547,0.005);
#25=ELLIPSE('',#812,0.00707106781186547,0.005);
#26=ELLIPSE('',#818,0.00707106781186547,0.005);
#27=ELLIPSE('',#834,0.00707106781186547,0.005);
#28=ELLIPSE('',#840,0.00707106781186547,0.005);
#29=ELLIPSE('',#846,0.00707106781186547,0.005);
#30=ELLIPSE('',#850,0.00707106781186547,0.005);
#31=ELLIPSE('',#852,0.00707106781186547,0.005);
#32=CYLINDRICAL_SURFACE('',#793,0.005);
#33=CYLINDRICAL_SURFACE('',#796,0.005);
#34=CYLINDRICAL_SURFACE('',#799,0.005);
#35=CYLINDRICAL_SURFACE('',#801,0.005);
#36=CYLINDRICAL_SURFACE('',#803,0.005);
#37=CYLINDRICAL_SURFACE('',#805,0.005);
#38=CYLINDRICAL_SURFACE('',#809,0.005);
#39=CYLINDRICAL_SURFACE('',#811,0.005);
#40=CYLINDRICAL_SURFACE('',#813,0.005);
#41=CYLINDRICAL_SURFACE('',#815,0.005);
#42=CYLINDRICAL_SURFACE('',#817,0.005);
#43=CYLINDRICAL_SURFACE('',#825,0.005);
#44=CYLINDRICAL_SURFACE('',#827,0.005);
#45=CYLINDRICAL_SURFACE('',#829,0.005);
#46=CYLINDRICAL_SURFACE('',#831,0.005);
#47=CYLINDRICAL_SURFACE('',#833,0.005);
#48=CYLINDRICAL_SURFACE('',#839,0.005);
#49=CYLINDRICAL_SURFACE('',#841,0.005);
#50=CYLINDRICAL_SURFACE('',#843,0.005);
#51=CYLINDRICAL_SURFACE('',#845,0.005);
#52=CYLINDRICAL_SURFACE('',#849,0.005);
#53=CYLINDRICAL_SURFACE('',#851,0.005);
#54=CYLINDRICAL_SURFACE('',#853,0.005);
#55=CYLINDRICAL_SURFACE('',#854,0.005);
#56=CIRCLE('',#789,0.005);
#57=CIRCLE('',#791,0.005);
#58=CIRCLE('',#800,0.005);
#59=CIRCLE('',#802,0.005);
#60=CIRCLE('',#808,0.005);
#61=CIRCLE('',#814,0.005);
#62=CIRCLE('',#816,0.005);
#63=CIRCLE('',#820,0.005);
#64=CIRCLE('',#821,0.005);
#65=CIRCLE('',#823,0.005);
#66=CIRCLE('',#824,0.005);
#67=CIRCLE('',#826,0.005);
#68=CIRCLE('',#828,0.005);
#69=CIRCLE('',#830,0.005);
#70=CIRCLE('',#832,0.005);
#71=CIRCLE('',#836,0.005);
#72=CIRCLE('',#838,0.005);
#73=CIRCLE('',#842,0.005);
#74=CIRCLE('',#844,0.005);
#75=CIRCLE('',#848,0.005);
#76=ORIENTED_EDGE('',*,*,#288,.T.);
#77=ORIENTED_EDGE('',*,*,#289,.T.);
#78=ORIENTED_EDGE('',*,*,#290,.F.);
#79=ORIENTED_EDGE('',*,*,#291,.F.);
#80=ORIENTED_EDGE('',*,*,#292,.T.);
#81=ORIENTED_EDGE('',*,*,#293,.T.);
#82=ORIENTED_EDGE('',*,*,#294,.F.);
#83=ORIENTED_EDGE('',*,*,#295,.T.);
#84=ORIENTED_EDGE('',*,*,#296,.T.);
#85=ORIENTED_EDGE('',*,*,#297,.T.);
#86=ORIENTED_EDGE('',*,*,#298,.T.);
#87=ORIENTED_EDGE('',*,*,#299,.T.);
#88=ORIENTED_EDGE('',*,*,#300,.T.);
#89=ORIENTED_EDGE('',*,*,#301,.T.);
#90=ORIENTED_EDGE('',*,*,#302,.T.);
#91=ORIENTED_EDGE('',*,*,#303,.T.);
#92=ORIENTED_EDGE('',*,*,#304,.T.);
#93=ORIENTED_EDGE('',*,*,#305,.T.);
#94=ORIENTED_EDGE('',*,*,#306,.T.);
#95=ORIENTED_EDGE('',*,*,#307,.T.);
#96=ORIENTED_EDGE('',*,*,#308,.F.);
#97=ORIENTED_EDGE('',*,*,#309,.T.);
#98=ORIENTED_EDGE('',*,*,#310,.T.);
#99=ORIENTED_EDGE('',*,*,#298,.F.);
#100=ORIENTED_EDGE('',*,*,#311,.T.);
#101=ORIENTED_EDGE('',*,*,#312,.T.);
#102=ORIENTED_EDGE('',*,*,#313,.T.);
#103=ORIENTED_EDGE('',*,*,#314,.F.);
#104=ORIENTED_EDGE('',*,*,#315,.T.);
#105=ORIENTED_EDGE('',*,*,#316,.T.);
#106=ORIENTED_EDGE('',*,*,#317,.T.);
#107=ORIENTED_EDGE('',*,*,#318,.T.);
#108=ORIENTED_EDGE('',*,*,#319,.T.);
#109=ORIENTED_EDGE('',*,*,#320,.T.);
#110=ORIENTED_EDGE('',*,*,#321,.T.);
#111=ORIENTED_EDGE('',*,*,#322,.T.);
#112=ORIENTED_EDGE('',*,*,#323,.T.);
#113=ORIENTED_EDGE('',*,*,#324,.T.);
#114=ORIENTED_EDGE('',*,*,#325,.T.);
#115=ORIENTED_EDGE('',*,*,#326,.T.);
#116=ORIENTED_EDGE('',*,*,#327,.T.);
#117=ORIENTED_EDGE('',*,*,#328,.T.);
#118=ORIENTED_EDGE('',*,*,#329,.T.);
#119=ORIENTED_EDGE('',*,*,#330,.T.);
#120=ORIENTED_EDGE('',*,*,#331,.T.);
#121=ORIENTED_EDGE('',*,*,#332,.T.);
#122=ORIENTED_EDGE('',*,*,#333,.T.);
#123=ORIENTED_EDGE('',*,*,#334,.T.);
#124=ORIENTED_EDGE('',*,*,#314,.T.);
#125=ORIENTED_EDGE('',*,*,#335,.T.);
#126=ORIENTED_EDGE('',*,*,#336,.T.);
#127=ORIENTED_EDGE('',*,*,#337,.F.);
#128=ORIENTED_EDGE('',*,*,#336,.F.);
#129=ORIENTED_EDGE('',*,*,#338,.T.);
#130=ORIENTED_EDGE('',*,*,#339,.T.);
#131=ORIENTED_EDGE('',*,*,#340,.T.);
#132=ORIENTED_EDGE('',*,*,#341,.F.);
#133=ORIENTED_EDGE('',*,*,#342,.T.);
#134=ORIENTED_EDGE('',*,*,#291,.T.);
#135=ORIENTED_EDGE('',*,*,#343,.F.);
#136=ORIENTED_EDGE('',*,*,#290,.T.);
#137=ORIENTED_EDGE('',*,*,#344,.T.);
#138=ORIENTED_EDGE('',*,*,#345,.F.);
#139=ORIENTED_EDGE('',*,*,#343,.T.);
#140=ORIENTED_EDGE('',*,*,#346,.T.);
#141=ORIENTED_EDGE('',*,*,#347,.T.);
#142=ORIENTED_EDGE('',*,*,#295,.F.);
#143=ORIENTED_EDGE('',*,*,#348,.F.);
#144=ORIENTED_EDGE('',*,*,#294,.T.);
#145=ORIENTED_EDGE('',*,*,#349,.T.);
#146=ORIENTED_EDGE('',*,*,#350,.F.);
#147=ORIENTED_EDGE('',*,*,#348,.T.);
#148=ORIENTED_EDGE('',*,*,#351,.T.);
#149=ORIENTED_EDGE('',*,*,#352,.T.);
#150=ORIENTED_EDGE('',*,*,#296,.F.);
#151=ORIENTED_EDGE('',*,*,#353,.F.);
#152=ORIENTED_EDGE('',*,*,#299,.F.);
#153=ORIENTED_EDGE('',*,*,#310,.F.);
#154=ORIENTED_EDGE('',*,*,#354,.T.);
#155=ORIENTED_EDGE('',*,*,#355,.T.);
#156=ORIENTED_EDGE('',*,*,#353,.T.);
#157=ORIENTED_EDGE('',*,*,#337,.T.);
#158=ORIENTED_EDGE('',*,*,#340,.F.);
#159=ORIENTED_EDGE('',*,*,#356,.F.);
#160=ORIENTED_EDGE('',*,*,#357,.T.);
#161=ORIENTED_EDGE('',*,*,#308,.T.);
#162=ORIENTED_EDGE('',*,*,#350,.T.);
#163=ORIENTED_EDGE('',*,*,#358,.T.);
#164=ORIENTED_EDGE('',*,*,#351,.F.);
#165=ORIENTED_EDGE('',*,*,#355,.F.);
#166=ORIENTED_EDGE('',*,*,#359,.T.);
#167=ORIENTED_EDGE('',*,*,#356,.T.);
#168=ORIENTED_EDGE('',*,*,#339,.F.);
#169=ORIENTED_EDGE('',*,*,#360,.T.);
#170=ORIENTED_EDGE('',*,*,#341,.T.);
#171=ORIENTED_EDGE('',*,*,#345,.T.);
#172=ORIENTED_EDGE('',*,*,#361,.T.);
#173=ORIENTED_EDGE('',*,*,#346,.F.);
#174=ORIENTED_EDGE('',*,*,#362,.F.);
#175=ORIENTED_EDGE('',*,*,#344,.F.);
#176=ORIENTED_EDGE('',*,*,#363,.F.);
#177=ORIENTED_EDGE('',*,*,#317,.F.);
#178=ORIENTED_EDGE('',*,*,#364,.F.);
#179=ORIENTED_EDGE('',*,*,#323,.F.);
#180=ORIENTED_EDGE('',*,*,#365,.F.);
#181=ORIENTED_EDGE('',*,*,#342,.F.);
#182=ORIENTED_EDGE('',*,*,#365,.T.);
#183=ORIENTED_EDGE('',*,*,#330,.F.);
#184=ORIENTED_EDGE('',*,*,#366,.F.);
#185=ORIENTED_EDGE('',*,*,#288,.F.);
#186=ORIENTED_EDGE('',*,*,#363,.T.);
#187=ORIENTED_EDGE('',*,*,#289,.F.);
#188=ORIENTED_EDGE('',*,*,#367,.F.);
#189=ORIENTED_EDGE('',*,*,#318,.F.);
#190=ORIENTED_EDGE('',*,*,#362,.T.);
#191=ORIENTED_EDGE('',*,*,#316,.F.);
#192=ORIENTED_EDGE('',*,*,#368,.F.);
#193=ORIENTED_EDGE('',*,*,#361,.F.);
#194=ORIENTED_EDGE('',*,*,#364,.T.);
#195=ORIENTED_EDGE('',*,*,#360,.F.);
#196=ORIENTED_EDGE('',*,*,#369,.F.);
#197=ORIENTED_EDGE('',*,*,#324,.F.);
#198=ORIENTED_EDGE('',*,*,#367,.T.);
#199=ORIENTED_EDGE('',*,*,#366,.T.);
#200=ORIENTED_EDGE('',*,*,#370,.F.);
#201=ORIENTED_EDGE('',*,*,#368,.T.);
#202=ORIENTED_EDGE('',*,*,#315,.F.);
#203=ORIENTED_EDGE('',*,*,#371,.F.);
#204=ORIENTED_EDGE('',*,*,#347,.F.);
#205=ORIENTED_EDGE('',*,*,#369,.T.);
#206=ORIENTED_EDGE('',*,*,#338,.F.);
#207=ORIENTED_EDGE('',*,*,#372,.F.);
#208=ORIENTED_EDGE('',*,*,#325,.F.);
#209=ORIENTED_EDGE('',*,*,#370,.T.);
#210=ORIENTED_EDGE('',*,*,#329,.F.);
#211=ORIENTED_EDGE('',*,*,#373,.F.);
#212=ORIENTED_EDGE('',*,*,#319,.F.);
#213=ORIENTED_EDGE('',*,*,#371,.T.);
#214=ORIENTED_EDGE('',*,*,#322,.F.);
#215=ORIENTED_EDGE('',*,*,#374,.F.);
#216=ORIENTED_EDGE('',*,*,#292,.F.);
#217=ORIENTED_EDGE('',*,*,#372,.T.);
#218=ORIENTED_EDGE('',*,*,#335,.F.);
#219=ORIENTED_EDGE('',*,*,#375,.F.);
#220=ORIENTED_EDGE('',*,*,#326,.F.);
#221=ORIENTED_EDGE('',*,*,#376,.F.);
#222=ORIENTED_EDGE('',*,*,#373,.T.);
#223=ORIENTED_EDGE('',*,*,#377,.F.);
#224=ORIENTED_EDGE('',*,*,#378,.F.);
#225=ORIENTED_EDGE('',*,*,#374,.T.);
#226=ORIENTED_EDGE('',*,*,#379,.F.);
#227=ORIENTED_EDGE('',*,*,#375,.T.);
#228=ORIENTED_EDGE('',*,*,#313,.F.);
#229=ORIENTED_EDGE('',*,*,#380,.F.);
#230=ORIENTED_EDGE('',*,*,#327,.F.);
#231=ORIENTED_EDGE('',*,*,#377,.T.);
#232=ORIENTED_EDGE('',*,*,#328,.F.);
#233=ORIENTED_EDGE('',*,*,#381,.F.);
#234=ORIENTED_EDGE('',*,*,#332,.F.);
#235=ORIENTED_EDGE('',*,*,#376,.T.);
#236=ORIENTED_EDGE('',*,*,#331,.F.);
#237=ORIENTED_EDGE('',*,*,#382,.F.);
#238=ORIENTED_EDGE('',*,*,#320,.F.);
#239=ORIENTED_EDGE('',*,*,#379,.T.);
#240=ORIENTED_EDGE('',*,*,#321,.F.);
#241=ORIENTED_EDGE('',*,*,#383,.F.);
#242=ORIENTED_EDGE('',*,*,#304,.F.);
#243=ORIENTED_EDGE('',*,*,#378,.T.);
#244=ORIENTED_EDGE('',*,*,#303,.F.);
#245=ORIENTED_EDGE('',*,*,#384,.F.);
#246=ORIENTED_EDGE('',*,*,#293,.F.);
#247=ORIENTED_EDGE('',*,*,#381,.T.);
#248=ORIENTED_EDGE('',*,*,#380,.T.);
#249=ORIENTED_EDGE('',*,*,#385,.F.);
#250=ORIENTED_EDGE('',*,*,#383,.T.);
#251=ORIENTED_EDGE('',*,*,#382,.T.);
#252=ORIENTED_EDGE('',*,*,#386,.F.);
#253=ORIENTED_EDGE('',*,*,#384,.T.);
#254=ORIENTED_EDGE('',*,*,#302,.F.);
#255=ORIENTED_EDGE('',*,*,#387,.F.);
#256=ORIENTED_EDGE('',*,*,#349,.F.);
#257=ORIENTED_EDGE('',*,*,#385,.T.);
#258=ORIENTED_EDGE('',*,*,#312,.F.);
#259=ORIENTED_EDGE('',*,*,#388,.F.);
#260=ORIENTED_EDGE('',*,*,#333,.F.);
#261=ORIENTED_EDGE('',*,*,#386,.T.);
#262=ORIENTED_EDGE('',*,*,#334,.F.);
#263=ORIENTED_EDGE('',*,*,#389,.F.);
#264=ORIENTED_EDGE('',*,*,#305,.F.);
#265=ORIENTED_EDGE('',*,*,#387,.T.);
#266=ORIENTED_EDGE('',*,*,#301,.F.);
#267=ORIENTED_EDGE('',*,*,#390,.F.);
#268=ORIENTED_EDGE('',*,*,#358,.F.);
#269=ORIENTED_EDGE('',*,*,#389,.T.);
#270=ORIENTED_EDGE('',*,*,#388,.T.);
#271=ORIENTED_EDGE('',*,*,#391,.F.);
#272=ORIENTED_EDGE('',*,*,#390,.T.);
#273=ORIENTED_EDGE('',*,*,#300,.F.);
#274=ORIENTED_EDGE('',*,*,#392,.F.);
#275=ORIENTED_EDGE('',*,*,#352,.F.);
#276=ORIENTED_EDGE('',*,*,#391,.T.);
#277=ORIENTED_EDGE('',*,*,#311,.F.);
#278=ORIENTED_EDGE('',*,*,#393,.F.);
#279=ORIENTED_EDGE('',*,*,#306,.F.);
#280=ORIENTED_EDGE('',*,*,#392,.T.);
#281=ORIENTED_EDGE('',*,*,#307,.F.);
#282=ORIENTED_EDGE('',*,*,#393,.T.);
#283=ORIENTED_EDGE('',*,*,#297,.F.);
#284=ORIENTED_EDGE('',*,*,#354,.F.);
#285=ORIENTED_EDGE('',*,*,#309,.F.);
#286=ORIENTED_EDGE('',*,*,#357,.F.);
#287=ORIENTED_EDGE('',*,*,#359,.F.);
#288=EDGE_CURVE('',#394,#395,#454,.F.);
#289=EDGE_CURVE('',#395,#396,#455,.F.);
#290=EDGE_CURVE('',#397,#396,#456,.T.);
#291=EDGE_CURVE('',#394,#397,#457,.T.);
#292=EDGE_CURVE('',#398,#399,#458,.F.);
#293=EDGE_CURVE('',#399,#400,#459,.T.);
#294=EDGE_CURVE('',#401,#400,#460,.T.);
#295=EDGE_CURVE('',#401,#398,#461,.T.);
#296=EDGE_CURVE('',#402,#403,#462,.T.);
#297=EDGE_CURVE('',#403,#404,#463,.T.);
#298=EDGE_CURVE('',#404,#405,#464,.T.);
#299=EDGE_CURVE('',#405,#402,#465,.T.);
#300=EDGE_CURVE('',#406,#407,#466,.F.);
#301=EDGE_CURVE('',#407,#408,#467,.F.);
#302=EDGE_CURVE('',#408,#409,#468,.T.);
#303=EDGE_CURVE('',#409,#410,#469,.F.);
#304=EDGE_CURVE('',#410,#411,#470,.F.);
#305=EDGE_CURVE('',#411,#412,#471,.T.);
#306=EDGE_CURVE('',#412,#413,#472,.T.);
#307=EDGE_CURVE('',#413,#406,#473,.F.);
#308=EDGE_CURVE('',#414,#415,#474,.T.);
#309=EDGE_CURVE('',#414,#416,#475,.F.);
#310=EDGE_CURVE('',#416,#405,#476,.T.);
#311=EDGE_CURVE('',#404,#417,#477,.F.);
#312=EDGE_CURVE('',#417,#418,#478,.T.);
#313=EDGE_CURVE('',#418,#419,#479,.T.);
#314=EDGE_CURVE('',#415,#419,#480,.T.);
#315=EDGE_CURVE('',#420,#421,#481,.F.);
#316=EDGE_CURVE('',#421,#422,#482,.T.);
#317=EDGE_CURVE('',#422,#423,#483,.T.);
#318=EDGE_CURVE('',#423,#424,#484,.T.);
#319=EDGE_CURVE('',#424,#425,#485,.F.);
#320=EDGE_CURVE('',#425,#426,#486,.F.);
#321=EDGE_CURVE('',#426,#427,#487,.T.);
#322=EDGE_CURVE('',#427,#420,#488,.T.);
#323=EDGE_CURVE('',#428,#429,#489,.F.);
#324=EDGE_CURVE('',#429,#430,#490,.T.);
#325=EDGE_CURVE('',#430,#431,#491,.T.);
#326=EDGE_CURVE('',#431,#432,#492,.T.);
#327=EDGE_CURVE('',#432,#433,#493,.F.);
#328=EDGE_CURVE('',#433,#434,#494,.F.);
#329=EDGE_CURVE('',#434,#435,#495,.T.);
#330=EDGE_CURVE('',#435,#428,#496,.T.);
#331=EDGE_CURVE('',#436,#437,#497,.T.);
#332=EDGE_CURVE('',#437,#438,#498,.T.);
#333=EDGE_CURVE('',#438,#439,#499,.F.);
#334=EDGE_CURVE('',#439,#436,#500,.F.);
#335=EDGE_CURVE('',#419,#440,#501,.F.);
#336=EDGE_CURVE('',#440,#441,#502,.T.);
#337=EDGE_CURVE('',#415,#441,#503,.T.);
#338=EDGE_CURVE('',#440,#442,#504,.F.);
#339=EDGE_CURVE('',#442,#443,#505,.T.);
#340=EDGE_CURVE('',#443,#441,#506,.T.);
#341=EDGE_CURVE('',#444,#445,#507,.T.);
#342=EDGE_CURVE('',#444,#394,#508,.T.);
#343=EDGE_CURVE('',#445,#397,#509,.T.);
#344=EDGE_CURVE('',#396,#446,#510,.F.);
#345=EDGE_CURVE('',#445,#446,#511,.T.);
#346=EDGE_CURVE('',#447,#448,#512,.T.);
#347=EDGE_CURVE('',#448,#398,#513,.T.);
#348=EDGE_CURVE('',#447,#401,#514,.T.);
#349=EDGE_CURVE('',#400,#449,#515,.F.);
#350=EDGE_CURVE('',#447,#449,#516,.T.);
#351=EDGE_CURVE('',#450,#451,#517,.T.);
#352=EDGE_CURVE('',#451,#403,#518,.T.);
#353=EDGE_CURVE('',#450,#402,#519,.T.);
#354=EDGE_CURVE('',#416,#452,#56,.F.);
#355=EDGE_CURVE('',#452,#450,#520,.T.);
#356=EDGE_CURVE('',#453,#443,#521,.T.);
#357=EDGE_CURVE('',#453,#414,#57,.T.);
#358=EDGE_CURVE('',#449,#451,#522,.T.);
#359=EDGE_CURVE('',#452,#453,#523,.T.);
#360=EDGE_CURVE('',#442,#444,#524,.F.);
#361=EDGE_CURVE('',#446,#448,#525,.F.);
#362=EDGE_CURVE('',#446,#422,#18,.F.);
#363=EDGE_CURVE('',#423,#396,#19,.T.);
#364=EDGE_CURVE('',#429,#444,#20,.F.);
#365=EDGE_CURVE('',#394,#428,#21,.T.);
#366=EDGE_CURVE('',#395,#435,#58,.T.);
#367=EDGE_CURVE('',#424,#395,#59,.T.);
#368=EDGE_CURVE('',#448,#421,#22,.F.);
#369=EDGE_CURVE('',#430,#442,#23,.F.);
#370=EDGE_CURVE('',#424,#435,#60,.F.);
#371=EDGE_CURVE('',#398,#420,#24,.F.);
#372=EDGE_CURVE('',#431,#440,#25,.F.);
#373=EDGE_CURVE('',#425,#434,#61,.T.);
#374=EDGE_CURVE('',#399,#427,#62,.T.);
#375=EDGE_CURVE('',#432,#419,#26,.T.);
#376=EDGE_CURVE('',#425,#437,#63,.F.);
#377=EDGE_CURVE('',#437,#434,#64,.F.);
#378=EDGE_CURVE('',#399,#410,#65,.F.);
#379=EDGE_CURVE('',#410,#427,#66,.F.);
#380=EDGE_CURVE('',#433,#418,#67,.T.);
#381=EDGE_CURVE('',#438,#433,#68,.T.);
#382=EDGE_CURVE('',#426,#436,#69,.T.);
#383=EDGE_CURVE('',#411,#426,#70,.T.);
#384=EDGE_CURVE('',#400,#409,#27,.T.);
#385=EDGE_CURVE('',#438,#418,#71,.F.);
#386=EDGE_CURVE('',#411,#436,#72,.F.);
#387=EDGE_CURVE('',#449,#408,#28,.T.);
#388=EDGE_CURVE('',#439,#417,#73,.T.);
#389=EDGE_CURVE('',#412,#439,#74,.T.);
#390=EDGE_CURVE('',#451,#407,#29,.T.);
#391=EDGE_CURVE('',#412,#417,#75,.F.);
#392=EDGE_CURVE('',#403,#406,#30,.T.);
#393=EDGE_CURVE('',#413,#404,#31,.T.);
#394=VERTEX_POINT('',#1096);
#395=VERTEX_POINT('',#1097);
#396=VERTEX_POINT('',#1099);
#397=VERTEX_POINT('',#1101);
#398=VERTEX_POINT('',#1105);
#399=VERTEX_POINT('',#1106);
#400=VERTEX_POINT('',#1108);
#401=VERTEX_POINT('',#1110);
#402=VERTEX_POINT('',#1114);
#403=VERTEX_POINT('',#1115);
#404=VERTEX_POINT('',#1117);
#405=VERTEX_POINT('',#1119);
#406=VERTEX_POINT('',#1123);
#407=VERTEX_POINT('',#1124);
#408=VERTEX_POINT('',#1126);
#409=VERTEX_POINT('',#1128);
#410=VERTEX_POINT('',#1130);
#411=VERTEX_POINT('',#1132);
#412=VERTEX_POINT('',#1134);
#413=VERTEX_POINT('',#1136);
#414=VERTEX_POINT('',#1140);
#415=VERTEX_POINT('',#1141);
#416=VERTEX_POINT('',#1143);
#417=VERTEX_POINT('',#1146);
#418=VERTEX_POINT('',#1148);
#419=VERTEX_POINT('',#1150);
#420=VERTEX_POINT('',#1154);
#421=VERTEX_POINT('',#1155);
#422=VERTEX_POINT('',#1157);
#423=VERTEX_POINT('',#1159);
#424=VERTEX_POINT('',#1161);
#425=VERTEX_POINT('',#1163);
#426=VERTEX_POINT('',#1165);
#427=VERTEX_POINT('',#1167);
#428=VERTEX_POINT('',#1171);
#429=VERTEX_POINT('',#1172);
#430=VERTEX_POINT('',#1174);
#431=VERTEX_POINT('',#1176);
#432=VERTEX_POINT('',#1178);
#433=VERTEX_POINT('',#1180);
#434=VERTEX_POINT('',#1182);
#435=VERTEX_POINT('',#1184);
#436=VERTEX_POINT('',#1188);
#437=VERTEX_POINT('',#1189);
#438=VERTEX_POINT('',#1191);
#439=VERTEX_POINT('',#1193);
#440=VERTEX_POINT('',#1197);
#441=VERTEX_POINT('',#1199);
#442=VERTEX_POINT('',#1203);
#443=VERTEX_POINT('',#1205);
#444=VERTEX_POINT('',#1209);
#445=VERTEX_POINT('',#1210);
#446=VERTEX_POINT('',#1215);
#447=VERTEX_POINT('',#1219);
#448=VERTEX_POINT('',#1220);
#449=VERTEX_POINT('',#1225);
#450=VERTEX_POINT('',#1229);
#451=VERTEX_POINT('',#1230);
#452=VERTEX_POINT('',#1235);
#453=VERTEX_POINT('',#1239);
#454=LINE('',#1095,#526);
#455=LINE('',#1098,#527);
#456=LINE('',#1100,#528);
#457=LINE('',#1102,#529);
#458=LINE('',#1104,#530);
#459=LINE('',#1107,#531);
#460=LINE('',#1109,#532);
#461=LINE('',#1111,#533);
#462=LINE('',#1113,#534);
#463=LINE('',#1116,#535);
#464=LINE('',#1118,#536);
#465=LINE('',#1120,#537);
#466=LINE('',#1122,#538);
#467=LINE('',#1125,#539);
#468=LINE('',#1127,#540);
#469=LINE('',#1129,#541);
#470=LINE('',#1131,#542);
#471=LINE('',#1133,#543);
#472=LINE('',#1135,#544);
#473=LINE('',#1137,#545);
#474=LINE('',#1139,#546);
#475=LINE('',#1142,#547);
#476=LINE('',#1144,#548);
#477=LINE('',#1145,#549);
#478=LINE('',#1147,#550);
#479=LINE('',#1149,#551);
#480=LINE('',#1151,#552);
#481=LINE('',#1153,#553);
#482=LINE('',#1156,#554);
#483=LINE('',#1158,#555);
#484=LINE('',#1160,#556);
#485=LINE('',#1162,#557);
#486=LINE('',#1164,#558);
#487=LINE('',#1166,#559);
#488=LINE('',#1168,#560);
#489=LINE('',#1170,#561);
#490=LINE('',#1173,#562);
#491=LINE('',#1175,#563);
#492=LINE('',#1177,#564);
#493=LINE('',#1179,#565);
#494=LINE('',#1181,#566);
#495=LINE('',#1183,#567);
#496=LINE('',#1185,#568);
#497=LINE('',#1187,#569);
#498=LINE('',#1190,#570);
#499=LINE('',#1192,#571);
#500=LINE('',#1194,#572);
#501=LINE('',#1196,#573);
#502=LINE('',#1198,#574);
#503=LINE('',#1200,#575);
#504=LINE('',#1202,#576);
#505=LINE('',#1204,#577);
#506=LINE('',#1206,#578);
#507=LINE('',#1208,#579);
#508=LINE('',#1211,#580);
#509=LINE('',#1212,#581);
#510=LINE('',#1214,#582);
#511=LINE('',#1216,#583);
#512=LINE('',#1218,#584);
#513=LINE('',#1221,#585);
#514=LINE('',#1222,#586);
#515=LINE('',#1224,#587);
#516=LINE('',#1226,#588);
#517=LINE('',#1228,#589);
#518=LINE('',#1231,#590);
#519=LINE('',#1232,#591);
#520=LINE('',#1236,#592);
#521=LINE('',#1238,#593);
#522=LINE('',#1242,#594);
#523=LINE('',#1243,#595);
#524=LINE('',#1244,#596);
#525=LINE('',#1245,#597);
#526=VECTOR('',#859,1.);
#527=VECTOR('',#860,1.);
#528=VECTOR('',#861,1.);
#529=VECTOR('',#862,1.);
#530=VECTOR('',#865,1.);
#531=VECTOR('',#866,1.);
#532=VECTOR('',#867,1.);
#533=VECTOR('',#868,1.);
#534=VECTOR('',#871,1.);
#535=VECTOR('',#872,1.);
#536=VECTOR('',#873,1.);
#537=VECTOR('',#874,1.);
#538=VECTOR('',#877,1.);
#539=VECTOR('',#878,1.);
#540=VECTOR('',#879,1.);
#541=VECTOR('',#880,1.);
#542=VECTOR('',#881,1.);
#543=VECTOR('',#882,1.);
#544=VECTOR('',#883,1.);
#545=VECTOR('',#884,1.);
#546=VECTOR('',#887,1.);
#547=VECTOR('',#888,1.);
#548=VECTOR('',#889,1.);
#549=VECTOR('',#890,1.);
#550=VECTOR('',#891,1.);
#551=VECTOR('',#892,1.);
#552=VECTOR('',#893,1.);
#553=VECTOR('',#896,1.);
#554=VECTOR('',#897,1.);
#555=VECTOR('',#898,1.);
#556=VECTOR('',#899,1.);
#557=VECTOR('',#900,1.);
#558=VECTOR('',#901,1.);
#559=VECTOR('',#902,1.);
#560=VECTOR('',#903,1.);
#561=VECTOR('',#906,1.);
#562=VECTOR('',#907,1.);
#563=VECTOR('',#908,1.);
#564=VECTOR('',#909,1.);
#565=VECTOR('',#910,1.);
#566=VECTOR('',#911,1.);
#567=VECTOR('',#912,1.);
#568=VECTOR('',#913,1.);
#569=VECTOR('',#916,1.);
#570=VECTOR('',#917,1.);
#571=VECTOR('',#918,1.);
#572=VECTOR('',#919,1.);
#573=VECTOR('',#922,1.);
#574=VECTOR('',#923,1.);
#575=VECTOR('',#924,1.);
#576=VECTOR('',#927,1.);
#577=VECTOR('',#928,1.);
#578=VECTOR('',#929,1.);
#579=VECTOR('',#932,1.);
#580=VECTOR('',#933,1.);
#581=VECTOR('',#934,1.);
#582=VECTOR('',#937,1.);
#583=VECTOR('',#938,1.);
#584=VECTOR('',#941,1.);
#585=VECTOR('',#942,1.);
#586=VECTOR('',#943,1.);
#587=VECTOR('',#946,1.);
#588=VECTOR('',#947,1.);
#589=VECTOR('',#950,1.);
#590=VECTOR('',#951,1.);
#591=VECTOR('',#952,1.);
#592=VECTOR('',#957,1.);
#593=VECTOR('',#960,1.);
#594=VECTOR('',#965,1.);
#595=VECTOR('',#966,1.);
#596=VECTOR('',#967,1.);
#597=VECTOR('',#968,1.);
#598=EDGE_LOOP('',(#76,#77,#78,#79));
#599=EDGE_LOOP('',(#80,#81,#82,#83));
#600=EDGE_LOOP('',(#84,#85,#86,#87));
#601=EDGE_LOOP('',(#88,#89,#90,#91,#92,#93,#94,#95));
#602=EDGE_LOOP('',(#96,#97,#98,#99,#100,#101,#102,#103));
#603=EDGE_LOOP('',(#104,#105,#106,#107,#108,#109,#110,#111));
#604=EDGE_LOOP('',(#112,#113,#114,#115,#116,#117,#118,#119));
#605=EDGE_LOOP('',(#120,#121,#122,#123));
#606=EDGE_LOOP('',(#124,#125,#126,#127));
#607=EDGE_LOOP('',(#128,#129,#130,#131));
#608=EDGE_LOOP('',(#132,#133,#134,#135));
#609=EDGE_LOOP('',(#136,#137,#138,#139));
#610=EDGE_LOOP('',(#140,#141,#142,#143));
#611=EDGE_LOOP('',(#144,#145,#146,#147));
#612=EDGE_LOOP('',(#148,#149,#150,#151));
#613=EDGE_LOOP('',(#152,#153,#154,#155,#156));
#614=EDGE_LOOP('',(#157,#158,#159,#160,#161));
#615=EDGE_LOOP('',(#162,#163,#164,#165,#166,#167,#168,#169,#170,#171,#172,
#173));
#616=EDGE_LOOP('',(#174,#175,#176,#177));
#617=EDGE_LOOP('',(#178,#179,#180,#181));
#618=EDGE_LOOP('',(#182,#183,#184,#185));
#619=EDGE_LOOP('',(#186,#187,#188,#189));
#620=EDGE_LOOP('',(#190,#191,#192,#193));
#621=EDGE_LOOP('',(#194,#195,#196,#197));
#622=EDGE_LOOP('',(#198,#199,#200));
#623=EDGE_LOOP('',(#201,#202,#203,#204));
#624=EDGE_LOOP('',(#205,#206,#207,#208));
#625=EDGE_LOOP('',(#209,#210,#211,#212));
#626=EDGE_LOOP('',(#213,#214,#215,#216));
#627=EDGE_LOOP('',(#217,#218,#219,#220));
#628=EDGE_LOOP('',(#221,#222,#223));
#629=EDGE_LOOP('',(#224,#225,#226));
#630=EDGE_LOOP('',(#227,#228,#229,#230));
#631=EDGE_LOOP('',(#231,#232,#233,#234));
#632=EDGE_LOOP('',(#235,#236,#237,#238));
#633=EDGE_LOOP('',(#239,#240,#241,#242));
#634=EDGE_LOOP('',(#243,#244,#245,#246));
#635=EDGE_LOOP('',(#247,#248,#249));
#636=EDGE_LOOP('',(#250,#251,#252));
#637=EDGE_LOOP('',(#253,#254,#255,#256));
#638=EDGE_LOOP('',(#257,#258,#259,#260));
#639=EDGE_LOOP('',(#261,#262,#263,#264));
#640=EDGE_LOOP('',(#265,#266,#267,#268));
#641=EDGE_LOOP('',(#269,#270,#271));
#642=EDGE_LOOP('',(#272,#273,#274,#275));
#643=EDGE_LOOP('',(#276,#277,#278,#279));
#644=EDGE_LOOP('',(#280,#281,#282,#283));
#645=EDGE_LOOP('',(#284,#285,#286,#287));
#646=FACE_BOUND('',#598,.T.);
#647=FACE_BOUND('',#599,.T.);
#648=FACE_BOUND('',#600,.T.);
#649=FACE_BOUND('',#601,.T.);
#650=FACE_BOUND('',#602,.T.);
#651=FACE_BOUND('',#603,.T.);
#652=FACE_BOUND('',#604,.T.);
#653=FACE_BOUND('',#605,.T.);
#654=FACE_BOUND('',#606,.T.);
#655=FACE_BOUND('',#607,.T.);
#656=FACE_BOUND('',#608,.T.);
#657=FACE_BOUND('',#609,.T.);
#658=FACE_BOUND('',#610,.T.);
#659=FACE_BOUND('',#611,.T.);
#660=FACE_BOUND('',#612,.T.);
#661=FACE_BOUND('',#613,.T.);
#662=FACE_BOUND('',#614,.T.);
#663=FACE_BOUND('',#615,.T.);
#664=FACE_BOUND('',#616,.T.);
#665=FACE_BOUND('',#617,.T.);
#666=FACE_BOUND('',#618,.T.);
#667=FACE_BOUND('',#619,.T.);
#668=FACE_BOUND('',#620,.T.);
#669=FACE_BOUND('',#621,.T.);
#670=FACE_BOUND('',#622,.T.);
#671=FACE_BOUND('',#623,.T.);
#672=FACE_BOUND('',#624,.T.);
#673=FACE_BOUND('',#625,.T.);
#674=FACE_BOUND('',#626,.T.);
#675=FACE_BOUND('',#627,.T.);
#676=FACE_BOUND('',#628,.T.);
#677=FACE_BOUND('',#629,.T.);
#678=FACE_BOUND('',#630,.T.);
#679=FACE_BOUND('',#631,.T.);
#680=FACE_BOUND('',#632,.T.);
#681=FACE_BOUND('',#633,.T.);
#682=FACE_BOUND('',#634,.T.);
#683=FACE_BOUND('',#635,.T.);
#684=FACE_BOUND('',#636,.T.);
#685=FACE_BOUND('',#637,.T.);
#686=FACE_BOUND('',#638,.T.);
#687=FACE_BOUND('',#639,.T.);
#688=FACE_BOUND('',#640,.T.);
#689=FACE_BOUND('',#641,.T.);
#690=FACE_BOUND('',#642,.T.);
#691=FACE_BOUND('',#643,.T.);
#692=FACE_BOUND('',#644,.T.);
#693=FACE_BOUND('',#645,.T.);
#694=PLANE('',#773);
#695=PLANE('',#774);
#696=PLANE('',#775);
#697=PLANE('',#776);
#698=PLANE('',#777);
#699=PLANE('',#778);
#700=PLANE('',#779);
#701=PLANE('',#780);
#702=PLANE('',#781);
#703=PLANE('',#782);
#704=PLANE('',#783);
#705=PLANE('',#784);
#706=PLANE('',#785);
#707=PLANE('',#786);
#708=PLANE('',#787);
#709=PLANE('',#788);
#710=PLANE('',#790);
#711=PLANE('',#792);
#712=ADVANCED_FACE('',(#646),#694,.F.);
#713=ADVANCED_FACE('',(#647),#695,.F.);
#714=ADVANCED_FACE('',(#648),#696,.F.);
#715=ADVANCED_FACE('',(#649),#697,.T.);
#716=ADVANCED_FACE('',(#650),#698,.T.);
#717=ADVANCED_FACE('',(#651),#699,.F.);
#718=ADVANCED_FACE('',(#652),#700,.F.);
#719=ADVANCED_FACE('',(#653),#701,.T.);
#720=ADVANCED_FACE('',(#654),#702,.F.);
#721=ADVANCED_FACE('',(#655),#703,.T.);
#722=ADVANCED_FACE('',(#656),#704,.F.);
#723=ADVANCED_FACE('',(#657),#705,.F.);
#724=ADVANCED_FACE('',(#658),#706,.T.);
#725=ADVANCED_FACE('',(#659),#707,.F.);
#726=ADVANCED_FACE('',(#660),#708,.T.);
#727=ADVANCED_FACE('',(#661),#709,.T.);
#728=ADVANCED_FACE('',(#662),#710,.F.);
#729=ADVANCED_FACE('',(#663),#711,.T.);
#730=ADVANCED_FACE('',(#664),#32,.T.);
#731=ADVANCED_FACE('',(#665),#33,.T.);
#732=ADVANCED_FACE('',(#666),#34,.T.);
#733=ADVANCED_FACE('',(#667),#35,.T.);
#734=ADVANCED_FACE('',(#668),#36,.T.);
#735=ADVANCED_FACE('',(#669),#37,.T.);
#736=ADVANCED_FACE('',(#670),#12,.T.);
#737=ADVANCED_FACE('',(#671),#38,.T.);
#738=ADVANCED_FACE('',(#672),#39,.T.);
#739=ADVANCED_FACE('',(#673),#40,.T.);
#740=ADVANCED_FACE('',(#674),#41,.T.);
#741=ADVANCED_FACE('',(#675),#42,.T.);
#742=ADVANCED_FACE('',(#676),#13,.T.);
#743=ADVANCED_FACE('',(#677),#14,.T.);
#744=ADVANCED_FACE('',(#678),#43,.T.);
#745=ADVANCED_FACE('',(#679),#44,.T.);
#746=ADVANCED_FACE('',(#680),#45,.T.);
#747=ADVANCED_FACE('',(#681),#46,.T.);
#748=ADVANCED_FACE('',(#682),#47,.T.);
#749=ADVANCED_FACE('',(#683),#15,.T.);
#750=ADVANCED_FACE('',(#684),#16,.T.);
#751=ADVANCED_FACE('',(#685),#48,.T.);
#752=ADVANCED_FACE('',(#686),#49,.T.);
#753=ADVANCED_FACE('',(#687),#50,.T.);
#754=ADVANCED_FACE('',(#688),#51,.T.);
#755=ADVANCED_FACE('',(#689),#17,.T.);
#756=ADVANCED_FACE('',(#690),#52,.T.);
#757=ADVANCED_FACE('',(#691),#53,.T.);
#758=ADVANCED_FACE('',(#692),#54,.T.);
#759=ADVANCED_FACE('',(#693),#55,.T.);
#760=CLOSED_SHELL('',(#712,#713,#714,#715,#716,#717,#718,#719,#720,#721,
#722,#723,#724,#725,#726,#727,#728,#729,#730,#731,#732,#733,#734,#735,#736,
#737,#738,#739,#740,#741,#742,#743,#744,#745,#746,#747,#748,#749,#750,#751,
#752,#753,#754,#755,#756,#757,#758,#759));
#761=STYLED_ITEM('',(#762),#769);
#762=PRESENTATION_STYLE_ASSIGNMENT((#763));
#763=SURFACE_STYLE_USAGE(.BOTH.,#764);
#764=SURFACE_SIDE_STYLE('',(#765));
#765=SURFACE_STYLE_FILL_AREA(#766);
#766=FILL_AREA_STYLE('',(#767));
#767=FILL_AREA_STYLE_COLOUR('',#768);
#768=COLOUR_RGB('',0.615686274509804,0.811764705882353,0.929411764705882);
#769=MANIFOLD_SOLID_BREP('Part 1',#760);
#770=SHAPE_DEFINITION_REPRESENTATION(#1314,#771);
#771=SHAPE_REPRESENTATION('Part 1',(#772),#1309);
#772=AXIS2_PLACEMENT_3D('',#1093,#855,#856);
#773=AXIS2_PLACEMENT_3D('',#1094,#857,#858);
#774=AXIS2_PLACEMENT_3D('',#1103,#863,#864);
#775=AXIS2_PLACEMENT_3D('',#1112,#869,#870);
#776=AXIS2_PLACEMENT_3D('',#1121,#875,#876);
#777=AXIS2_PLACEMENT_3D('',#1138,#885,#886);
#778=AXIS2_PLACEMENT_3D('',#1152,#894,#895);
#779=AXIS2_PLACEMENT_3D('',#1169,#904,#905);
#780=AXIS2_PLACEMENT_3D('',#1186,#914,#915);
#781=AXIS2_PLACEMENT_3D('',#1195,#920,#921);
#782=AXIS2_PLACEMENT_3D('',#1201,#925,#926);
#783=AXIS2_PLACEMENT_3D('',#1207,#930,#931);
#784=AXIS2_PLACEMENT_3D('',#1213,#935,#936);
#785=AXIS2_PLACEMENT_3D('',#1217,#939,#940);
#786=AXIS2_PLACEMENT_3D('',#1223,#944,#945);
#787=AXIS2_PLACEMENT_3D('',#1227,#948,#949);
#788=AXIS2_PLACEMENT_3D('',#1233,#953,#954);
#789=AXIS2_PLACEMENT_3D('',#1234,#955,#956);
#790=AXIS2_PLACEMENT_3D('',#1237,#958,#959);
#791=AXIS2_PLACEMENT_3D('',#1240,#961,#962);
#792=AXIS2_PLACEMENT_3D('',#1241,#963,#964);
#793=AXIS2_PLACEMENT_3D('',#1246,#969,#970);
#794=AXIS2_PLACEMENT_3D('',#1247,#971,#972);
#795=AXIS2_PLACEMENT_3D('',#1248,#973,#974);
#796=AXIS2_PLACEMENT_3D('',#1249,#975,#976);
#797=AXIS2_PLACEMENT_3D('',#1250,#977,#978);
#798=AXIS2_PLACEMENT_3D('',#1251,#979,#980);
#799=AXIS2_PLACEMENT_3D('',#1252,#981,#982);
#800=AXIS2_PLACEMENT_3D('',#1253,#983,#984);
#801=AXIS2_PLACEMENT_3D('',#1254,#985,#986);
#802=AXIS2_PLACEMENT_3D('',#1255,#987,#988);
#803=AXIS2_PLACEMENT_3D('',#1256,#989,#990);
#804=AXIS2_PLACEMENT_3D('',#1257,#991,#992);
#805=AXIS2_PLACEMENT_3D('',#1258,#993,#994);
#806=AXIS2_PLACEMENT_3D('',#1259,#995,#996);
#807=AXIS2_PLACEMENT_3D('',#1260,#997,#998);
#808=AXIS2_PLACEMENT_3D('',#1261,#999,#1000);
#809=AXIS2_PLACEMENT_3D('',#1262,#1001,#1002);
#810=AXIS2_PLACEMENT_3D('',#1263,#1003,#1004);
#811=AXIS2_PLACEMENT_3D('',#1264,#1005,#1006);
#812=AXIS2_PLACEMENT_3D('',#1265,#1007,#1008);
#813=AXIS2_PLACEMENT_3D('',#1266,#1009,#1010);
#814=AXIS2_PLACEMENT_3D('',#1267,#1011,#1012);
#815=AXIS2_PLACEMENT_3D('',#1268,#1013,#1014);
#816=AXIS2_PLACEMENT_3D('',#1269,#1015,#1016);
#817=AXIS2_PLACEMENT_3D('',#1270,#1017,#1018);
#818=AXIS2_PLACEMENT_3D('',#1271,#1019,#1020);
#819=AXIS2_PLACEMENT_3D('',#1272,#1021,#1022);
#820=AXIS2_PLACEMENT_3D('',#1273,#1023,#1024);
#821=AXIS2_PLACEMENT_3D('',#1274,#1025,#1026);
#822=AXIS2_PLACEMENT_3D('',#1275,#1027,#1028);
#823=AXIS2_PLACEMENT_3D('',#1276,#1029,#1030);
#824=AXIS2_PLACEMENT_3D('',#1277,#1031,#1032);
#825=AXIS2_PLACEMENT_3D('',#1278,#1033,#1034);
#826=AXIS2_PLACEMENT_3D('',#1279,#1035,#1036);
#827=AXIS2_PLACEMENT_3D('',#1280,#1037,#1038);
#828=AXIS2_PLACEMENT_3D('',#1281,#1039,#1040);
#829=AXIS2_PLACEMENT_3D('',#1282,#1041,#1042);
#830=AXIS2_PLACEMENT_3D('',#1283,#1043,#1044);
#831=AXIS2_PLACEMENT_3D('',#1284,#1045,#1046);
#832=AXIS2_PLACEMENT_3D('',#1285,#1047,#1048);
#833=AXIS2_PLACEMENT_3D('',#1286,#1049,#1050);
#834=AXIS2_PLACEMENT_3D('',#1287,#1051,#1052);
#835=AXIS2_PLACEMENT_3D('',#1288,#1053,#1054);
#836=AXIS2_PLACEMENT_3D('',#1289,#1055,#1056);
#837=AXIS2_PLACEMENT_3D('',#1290,#1057,#1058);
#838=AXIS2_PLACEMENT_3D('',#1291,#1059,#1060);
#839=AXIS2_PLACEMENT_3D('',#1292,#1061,#1062);
#840=AXIS2_PLACEMENT_3D('',#1293,#1063,#1064);
#841=AXIS2_PLACEMENT_3D('',#1294,#1065,#1066);
#842=AXIS2_PLACEMENT_3D('',#1295,#1067,#1068);
#843=AXIS2_PLACEMENT_3D('',#1296,#1069,#1070);
#844=AXIS2_PLACEMENT_3D('',#1297,#1071,#1072);
#845=AXIS2_PLACEMENT_3D('',#1298,#1073,#1074);
#846=AXIS2_PLACEMENT_3D('',#1299,#1075,#1076);
#847=AXIS2_PLACEMENT_3D('',#1300,#1077,#1078);
#848=AXIS2_PLACEMENT_3D('',#1301,#1079,#1080);
#849=AXIS2_PLACEMENT_3D('',#1302,#1081,#1082);
#850=AXIS2_PLACEMENT_3D('',#1303,#1083,#1084);
#851=AXIS2_PLACEMENT_3D('',#1304,#1085,#1086);
#852=AXIS2_PLACEMENT_3D('',#1305,#1087,#1088);
#853=AXIS2_PLACEMENT_3D('',#1306,#1089,#1090);
#854=AXIS2_PLACEMENT_3D('',#1307,#1091,#1092);
#855=DIRECTION('',(0.,0.,1.));
#856=DIRECTION('',(1.,0.,0.));
#857=DIRECTION('',(0.,0.,1.));
#858=DIRECTION('',(1.,0.,0.));
#859=DIRECTION('',(1.,0.,0.));
#860=DIRECTION('',(0.,-1.,0.));
#861=DIRECTION('',(-1.,0.,0.));
#862=DIRECTION('',(0.,1.,0.));
#863=DIRECTION('',(0.,0.,1.));
#864=DIRECTION('',(1.,0.,0.));
#865=DIRECTION('',(0.,-1.,0.));
#866=DIRECTION('',(1.,0.,0.));
#867=DIRECTION('',(0.,1.,0.));
#868=DIRECTION('',(-1.,0.,0.));
#869=DIRECTION('',(0.,0.,1.));
#870=DIRECTION('',(1.,0.,0.));
#871=DIRECTION('',(0.,1.,0.));
#872=DIRECTION('',(1.,0.,0.));
#873=DIRECTION('',(0.,-1.,0.));
#874=DIRECTION('',(-1.,0.,0.));
#875=DIRECTION('',(0.,1.,0.));
#876=DIRECTION('',(0.,0.,1.));
#877=DIRECTION('',(0.,0.,-1.));
#878=DIRECTION('',(1.,0.,0.));
#879=DIRECTION('',(0.,0.,-1.));
#880=DIRECTION('',(1.,0.,0.));
#881=DIRECTION('',(0.,0.,-1.));
#882=DIRECTION('',(1.,0.,0.));
#883=DIRECTION('',(0.,0.,-1.));
#884=DIRECTION('',(1.,0.,0.));
#885=DIRECTION('',(1.,0.,0.));
#886=DIRECTION('',(0.,0.,-1.));
#887=DIRECTION('',(0.,0.,-1.));
#888=DIRECTION('',(0.,-1.,0.));
#889=DIRECTION('',(0.,0.,-1.));
#890=DIRECTION('',(0.,0.,-1.));
#891=DIRECTION('',(0.,-1.,0.));
#892=DIRECTION('',(0.,0.,-1.));
#893=DIRECTION('',(0.,-1.,0.));
#894=DIRECTION('',(1.,0.,0.));
#895=DIRECTION('',(0.,0.,-1.));
#896=DIRECTION('',(0.,0.,-1.));
#897=DIRECTION('',(0.,-1.,0.));
#898=DIRECTION('',(0.,0.,-1.));
#899=DIRECTION('',(0.,-1.,0.));
#900=DIRECTION('',(0.,0.,-1.));
#901=DIRECTION('',(0.,-1.,0.));
#902=DIRECTION('',(0.,0.,-1.));
#903=DIRECTION('',(0.,-1.,0.));
#904=DIRECTION('',(0.,1.,0.));
#905=DIRECTION('',(0.,0.,1.));
#906=DIRECTION('',(0.,0.,-1.));
#907=DIRECTION('',(1.,0.,0.));
#908=DIRECTION('',(0.,0.,-1.));
#909=DIRECTION('',(1.,0.,0.));
#910=DIRECTION('',(0.,0.,-1.));
#911=DIRECTION('',(1.,0.,0.));
#912=DIRECTION('',(0.,0.,-1.));
#913=DIRECTION('',(1.,0.,0.));
#914=DIRECTION('',(0.,0.,1.));
#915=DIRECTION('',(1.,0.,0.));
#916=DIRECTION('',(0.,-1.,0.));
#917=DIRECTION('',(1.,0.,0.));
#918=DIRECTION('',(0.,-1.,0.));
#919=DIRECTION('',(1.,0.,0.));
#920=DIRECTION('',(0.,0.,1.));
#921=DIRECTION('',(1.,0.,0.));
#922=DIRECTION('',(1.,0.,0.));
#923=DIRECTION('',(0.,1.,0.));
#924=DIRECTION('',(-1.,0.,0.));
#925=DIRECTION('',(-1.,0.,0.));
#926=DIRECTION('',(0.,0.,1.));
#927=DIRECTION('',(0.,0.,-1.));
#928=DIRECTION('',(0.,1.,0.));
#929=DIRECTION('',(0.,0.,-1.));
#930=DIRECTION('',(-1.,0.,0.));
#931=DIRECTION('',(0.,0.,1.));
#932=DIRECTION('',(0.,1.,0.));
#933=DIRECTION('',(0.,0.,-1.));
#934=DIRECTION('',(0.,0.,-1.));
#935=DIRECTION('',(0.,-1.,0.));
#936=DIRECTION('',(0.,0.,-1.));
#937=DIRECTION('',(0.,0.,-1.));
#938=DIRECTION('',(-1.,0.,0.));
#939=DIRECTION('',(0.,-1.,0.));
#940=DIRECTION('',(0.,0.,-1.));
#941=DIRECTION('',(-1.,0.,0.));
#942=DIRECTION('',(0.,0.,-1.));
#943=DIRECTION('',(0.,0.,-1.));
#944=DIRECTION('',(-1.,0.,0.));
#945=DIRECTION('',(0.,0.,1.));
#946=DIRECTION('',(0.,0.,-1.));
#947=DIRECTION('',(0.,1.,0.));
#948=DIRECTION('',(-1.,0.,0.));
#949=DIRECTION('',(0.,0.,1.));
#950=DIRECTION('',(0.,1.,0.));
#951=DIRECTION('',(0.,0.,-1.));
#952=DIRECTION('',(0.,0.,-1.));
#953=DIRECTION('',(0.,-1.,0.));
#954=DIRECTION('',(0.,0.,-1.));
#955=DIRECTION('',(0.,-1.,0.));
#956=DIRECTION('',(0.,0.,-1.));
#957=DIRECTION('',(-1.,0.,0.));
#958=DIRECTION('',(0.,-1.,0.));
#959=DIRECTION('',(0.,0.,-1.));
#960=DIRECTION('',(-1.,0.,0.));
#961=DIRECTION('',(0.,-1.,0.));
#962=DIRECTION('',(0.,0.,-1.));
#963=DIRECTION('',(0.,0.,-1.));
#964=DIRECTION('',(1.,0.,0.));
#965=DIRECTION('',(1.,0.,0.));
#966=DIRECTION('',(0.,-1.,0.));
#967=DIRECTION('',(1.,0.,0.));
#968=DIRECTION('',(0.,-1.,0.));
#969=DIRECTION('',(0.,0.,-1.));
#970=DIRECTION('',(-1.,0.,0.));
#971=DIRECTION('',(0.,-0.707106781186548,-0.707106781186548));
#972=DIRECTION('',(0.,0.707106781186548,-0.707106781186548));
#973=DIRECTION('',(0.,-0.707106781186548,-0.707106781186548));
#974=DIRECTION('',(0.,0.707106781186548,-0.707106781186548));
#975=DIRECTION('',(0.,0.,-1.));
#976=DIRECTION('',(-1.,0.,0.));
#977=DIRECTION('',(-0.707106781186548,0.,-0.707106781186548));
#978=DIRECTION('',(0.707106781186548,0.,-0.707106781186548));
#979=DIRECTION('',(-0.707106781186548,0.,-0.707106781186548));
#980=DIRECTION('',(0.707106781186548,0.,-0.707106781186548));
#981=DIRECTION('',(1.,0.,0.));
#982=DIRECTION('',(0.,0.,-1.));
#983=DIRECTION('',(-1.,0.,0.));
#984=DIRECTION('',(0.,0.,1.));
#985=DIRECTION('',(0.,-1.,0.));
#986=DIRECTION('',(0.,0.,-1.));
#987=DIRECTION('',(0.,-1.,0.));
#988=DIRECTION('',(0.,0.,-1.));
#989=DIRECTION('',(0.,1.,0.));
#990=DIRECTION('',(0.,0.,1.));
#991=DIRECTION('',(0.,-0.707106781186548,0.707106781186548));
#992=DIRECTION('',(0.,0.707106781186548,0.707106781186548));
#993=DIRECTION('',(-1.,0.,0.));
#994=DIRECTION('',(0.,0.,1.));
#995=DIRECTION('',(-0.707106781186548,0.,0.707106781186548));
#996=DIRECTION('',(0.707106781186548,0.,0.707106781186548));
#997=DIRECTION('',(0.,0.,-1.));
#998=DIRECTION('',(-1.,0.,0.));
#999=DIRECTION('',(0.,0.,-1.));
#1000=DIRECTION('',(-1.,0.,0.));
#1001=DIRECTION('',(0.,0.,1.));
#1002=DIRECTION('',(1.,0.,0.));
#1003=DIRECTION('',(0.,-0.707106781186548,0.707106781186548));
#1004=DIRECTION('',(0.,0.707106781186548,0.707106781186548));
#1005=DIRECTION('',(0.,0.,1.));
#1006=DIRECTION('',(1.,0.,0.));
#1007=DIRECTION('',(-0.707106781186548,0.,0.707106781186548));
#1008=DIRECTION('',(0.707106781186548,0.,0.707106781186548));
#1009=DIRECTION('',(0.,0.,-1.));
#1010=DIRECTION('',(-1.,0.,0.));
#1011=DIRECTION('',(0.,0.,1.));
#1012=DIRECTION('',(1.,0.,0.));
#1013=DIRECTION('',(0.,-1.,0.));
#1014=DIRECTION('',(0.,0.,-1.));
#1015=DIRECTION('',(0.,1.,0.));
#1016=DIRECTION('',(0.,0.,1.));
#1017=DIRECTION('',(1.,0.,0.));
#1018=DIRECTION('',(0.,0.,-1.));
#1019=DIRECTION('',(0.707106781186548,0.,0.707106781186548));
#1020=DIRECTION('',(-0.707106781186548,0.,0.707106781186548));
#1021=DIRECTION('',(0.,-1.,0.));
#1022=DIRECTION('',(0.,0.,-1.));
#1023=DIRECTION('',(0.,-1.,0.));
#1024=DIRECTION('',(0.,0.,-1.));
#1025=DIRECTION('',(-1.,0.,0.));
#1026=DIRECTION('',(0.,0.,1.));
#1027=DIRECTION('',(-1.,0.,8.67361737988422E-16));
#1028=DIRECTION('',(8.67361737988422E-16,0.,1.));
#1029=DIRECTION('',(-1.,0.,0.));
#1030=DIRECTION('',(0.,0.,1.));
#1031=DIRECTION('',(0.,-8.67361737988403E-16,-1.));
#1032=DIRECTION('',(0.,1.,-8.67361737988403E-16));
#1033=DIRECTION('',(0.,0.,1.));
#1034=DIRECTION('',(1.,0.,0.));
#1035=DIRECTION('',(0.,0.,1.));
#1036=DIRECTION('',(1.,0.,0.));
#1037=DIRECTION('',(-1.,0.,0.));
#1038=DIRECTION('',(0.,0.,1.));
#1039=DIRECTION('',(1.,0.,0.));
#1040=DIRECTION('',(0.,0.,-1.));
#1041=DIRECTION('',(0.,1.,0.));
#1042=DIRECTION('',(0.,0.,1.));
#1043=DIRECTION('',(0.,1.,0.));
#1044=DIRECTION('',(0.,0.,1.));
#1045=DIRECTION('',(0.,0.,1.));
#1046=DIRECTION('',(1.,0.,0.));
#1047=DIRECTION('',(0.,0.,1.));
#1048=DIRECTION('',(1.,0.,0.));
#1049=DIRECTION('',(-1.,0.,0.));
#1050=DIRECTION('',(0.,0.,1.));
#1051=DIRECTION('',(0.707106781186548,0.,0.707106781186548));
#1052=DIRECTION('',(-0.707106781186548,0.,0.707106781186548));
#1053=DIRECTION('',(0.,-1.,0.));
#1054=DIRECTION('',(0.,0.,-1.));
#1055=DIRECTION('',(0.,-1.,0.));
#1056=DIRECTION('',(0.,0.,-1.));
#1057=DIRECTION('',(-1.,0.,0.));
#1058=DIRECTION('',(0.,0.,1.));
#1059=DIRECTION('',(-1.,0.,0.));
#1060=DIRECTION('',(0.,0.,1.));
#1061=DIRECTION('',(0.,0.,1.));
#1062=DIRECTION('',(1.,0.,0.));
#1063=DIRECTION('',(0.707106781186548,0.,0.707106781186548));
#1064=DIRECTION('',(-0.707106781186548,0.,0.707106781186548));
#1065=DIRECTION('',(0.,-1.,0.));
#1066=DIRECTION('',(0.,0.,-1.));
#1067=DIRECTION('',(0.,1.,0.));
#1068=DIRECTION('',(0.,0.,1.));
#1069=DIRECTION('',(1.,0.,0.));
#1070=DIRECTION('',(0.,0.,-1.));
#1071=DIRECTION('',(1.,0.,0.));
#1072=DIRECTION('',(0.,0.,-1.));
#1073=DIRECTION('',(1.,0.,0.));
#1074=DIRECTION('',(0.,0.,-1.));
#1075=DIRECTION('',(0.707106781186548,0.,-0.707106781186548));
#1076=DIRECTION('',(-0.707106781186548,0.,-0.707106781186548));
#1077=DIRECTION('',(0.,0.,1.));
#1078=DIRECTION('',(1.,0.,0.));
#1079=DIRECTION('',(0.,0.,1.));
#1080=DIRECTION('',(1.,0.,0.));
#1081=DIRECTION('',(0.,0.,-1.));
#1082=DIRECTION('',(-1.,0.,0.));
#1083=DIRECTION('',(0.707106781186548,0.,-0.707106781186548));
#1084=DIRECTION('',(-0.707106781186548,0.,-0.707106781186548));
#1085=DIRECTION('',(0.,0.,-1.));
#1086=DIRECTION('',(-1.,0.,0.));
#1087=DIRECTION('',(-0.707106781186548,0.,-0.707106781186548));
#1088=DIRECTION('',(0.707106781186548,0.,-0.707106781186548));
#1089=DIRECTION('',(-1.,0.,0.));
#1090=DIRECTION('',(0.,0.,1.));
#1091=DIRECTION('',(0.,-1.,0.));
#1092=DIRECTION('',(0.,0.,-1.));
#1093=CARTESIAN_POINT('',(0.,0.,0.));
#1094=CARTESIAN_POINT('',(0.,1.11022302462516E-16,0.));
#1095=CARTESIAN_POINT('',(0.,-0.495,0.));
#1096=CARTESIAN_POINT('',(-1.4,-0.495,0.));
#1097=CARTESIAN_POINT('',(-1.495,-0.495,0.));
#1098=CARTESIAN_POINT('',(-1.495,1.11022302462516E-16,0.));
#1099=CARTESIAN_POINT('',(-1.495,-0.4,0.));
#1100=CARTESIAN_POINT('',(-1.45,-0.4,0.));
#1101=CARTESIAN_POINT('',(-1.4,-0.4,0.));
#1102=CARTESIAN_POINT('',(-1.4,-0.45,0.));
#1103=CARTESIAN_POINT('',(0.,1.11022302462516E-16,0.));
#1104=CARTESIAN_POINT('',(-1.495,1.11022302462516E-16,0.));
#1105=CARTESIAN_POINT('',(-1.495,0.4,0.));
#1106=CARTESIAN_POINT('',(-1.495,0.495,0.));
#1107=CARTESIAN_POINT('',(-1.4,0.495,0.));
#1108=CARTESIAN_POINT('',(-1.4,0.495,0.));
#1109=CARTESIAN_POINT('',(-1.4,0.45,0.));
#1110=CARTESIAN_POINT('',(-1.4,0.4,0.));
#1111=CARTESIAN_POINT('',(-1.45,0.4,0.));
#1112=CARTESIAN_POINT('',(0.,1.11022302462516E-16,0.));
#1113=CARTESIAN_POINT('',(1.4,0.45,0.));
#1114=CARTESIAN_POINT('',(1.4,0.4,0.));
#1115=CARTESIAN_POINT('',(1.4,0.495,0.));
#1116=CARTESIAN_POINT('',(1.5,0.495,0.));
#1117=CARTESIAN_POINT('',(1.5,0.495,0.));
#1118=CARTESIAN_POINT('',(1.5,2.4980018054066E-16,0.));
#1119=CARTESIAN_POINT('',(1.5,0.4,0.));
#1120=CARTESIAN_POINT('',(1.45,0.4,0.));
#1121=CARTESIAN_POINT('',(0.,0.5,0.9));
#1122=CARTESIAN_POINT('',(1.405,0.5,0.9));
#1123=CARTESIAN_POINT('',(1.405,0.5,0.005));
#1124=CARTESIAN_POINT('',(1.405,0.5,0.805));
#1125=CARTESIAN_POINT('',(0.,0.5,0.805));
#1126=CARTESIAN_POINT('',(-1.405,0.5,0.805));
#1127=CARTESIAN_POINT('',(-1.405,0.5,0.));
#1128=CARTESIAN_POINT('',(-1.405,0.5,0.005));
#1129=CARTESIAN_POINT('',(-1.5,0.5,0.005));
#1130=CARTESIAN_POINT('',(-1.495,0.5,0.005));
#1131=CARTESIAN_POINT('',(-1.495,0.5,0.9));
#1132=CARTESIAN_POINT('',(-1.495,0.5,0.895));
#1133=CARTESIAN_POINT('',(0.,0.5,0.895));
#1134=CARTESIAN_POINT('',(1.495,0.5,0.895));
#1135=CARTESIAN_POINT('',(1.495,0.5,0.9));
#1136=CARTESIAN_POINT('',(1.495,0.5,0.005));
#1137=CARTESIAN_POINT('',(1.4,0.5,0.005));
#1138=CARTESIAN_POINT('',(1.5,2.4980018054066E-16,0.9));
#1139=CARTESIAN_POINT('',(1.5,-0.4,0.8));
#1140=CARTESIAN_POINT('',(1.5,-0.4,0.805));
#1141=CARTESIAN_POINT('',(1.5,-0.4,0.));
#1142=CARTESIAN_POINT('',(1.5,2.4980018054066E-16,0.805));
#1143=CARTESIAN_POINT('',(1.5,0.4,0.805));
#1144=CARTESIAN_POINT('',(1.5,0.4,0.8));
#1145=CARTESIAN_POINT('',(1.5,0.495,0.9));
#1146=CARTESIAN_POINT('',(1.5,0.495,0.895));
#1147=CARTESIAN_POINT('',(1.5,2.4980018054066E-16,0.895));
#1148=CARTESIAN_POINT('',(1.5,-0.495,0.895));
#1149=CARTESIAN_POINT('',(1.5,-0.495,0.));
#1150=CARTESIAN_POINT('',(1.5,-0.495,0.));
#1151=CARTESIAN_POINT('',(1.5,2.4980018054066E-16,0.));
#1152=CARTESIAN_POINT('',(-1.5,2.22044604925032E-16,0.9));
#1153=CARTESIAN_POINT('',(-1.5,0.405,0.8));
#1154=CARTESIAN_POINT('',(-1.5,0.405,0.005));
#1155=CARTESIAN_POINT('',(-1.5,0.405,0.805));
#1156=CARTESIAN_POINT('',(-1.5,-0.4,0.805));
#1157=CARTESIAN_POINT('',(-1.5,-0.405,0.805));
#1158=CARTESIAN_POINT('',(-1.5,-0.405,0.9));
#1159=CARTESIAN_POINT('',(-1.5,-0.405,0.005));
#1160=CARTESIAN_POINT('',(-1.5,2.22044604925032E-16,0.005));
#1161=CARTESIAN_POINT('',(-1.5,-0.495,0.005));
#1162=CARTESIAN_POINT('',(-1.5,-0.495,0.9));
#1163=CARTESIAN_POINT('',(-1.5,-0.495,0.895));
#1164=CARTESIAN_POINT('',(-1.5,0.5,0.895));
#1165=CARTESIAN_POINT('',(-1.5,0.495,0.895));
#1166=CARTESIAN_POINT('',(-1.5,0.495,0.));
#1167=CARTESIAN_POINT('',(-1.5,0.495,0.005));
#1168=CARTESIAN_POINT('',(-1.5,2.22044604925032E-16,0.005));
#1169=CARTESIAN_POINT('',(0.,-0.5,0.9));
#1170=CARTESIAN_POINT('',(-1.405,-0.5,0.9));
#1171=CARTESIAN_POINT('',(-1.405,-0.5,0.005));
#1172=CARTESIAN_POINT('',(-1.405,-0.5,0.805));
#1173=CARTESIAN_POINT('',(1.4,-0.5,0.805));
#1174=CARTESIAN_POINT('',(1.405,-0.5,0.805));
#1175=CARTESIAN_POINT('',(1.405,-0.5,0.));
#1176=CARTESIAN_POINT('',(1.405,-0.5,0.005));
#1177=CARTESIAN_POINT('',(0.,-0.5,0.005));
#1178=CARTESIAN_POINT('',(1.495,-0.5,0.005));
#1179=CARTESIAN_POINT('',(1.495,-0.5,0.9));
#1180=CARTESIAN_POINT('',(1.495,-0.5,0.895));
#1181=CARTESIAN_POINT('',(-1.5,-0.5,0.895));
#1182=CARTESIAN_POINT('',(-1.495,-0.5,0.895));
#1183=CARTESIAN_POINT('',(-1.495,-0.5,0.9));
#1184=CARTESIAN_POINT('',(-1.495,-0.5,0.005));
#1185=CARTESIAN_POINT('',(0.,-0.5,0.005));
#1186=CARTESIAN_POINT('',(0.,1.11022302462516E-16,0.9));
#1187=CARTESIAN_POINT('',(-1.495,-0.5,0.9));
#1188=CARTESIAN_POINT('',(-1.495,0.495,0.9));
#1189=CARTESIAN_POINT('',(-1.495,-0.495,0.9));
#1190=CARTESIAN_POINT('',(1.5,-0.495,0.9));
#1191=CARTESIAN_POINT('',(1.495,-0.495,0.9));
#1192=CARTESIAN_POINT('',(1.495,1.11022302462516E-16,0.9));
#1193=CARTESIAN_POINT('',(1.495,0.495,0.9));
#1194=CARTESIAN_POINT('',(0.,0.495,0.9));
#1195=CARTESIAN_POINT('',(0.,1.11022302462516E-16,0.));
#1196=CARTESIAN_POINT('',(0.,-0.495,0.));
#1197=CARTESIAN_POINT('',(1.4,-0.495,0.));
#1198=CARTESIAN_POINT('',(1.4,-0.45,0.));
#1199=CARTESIAN_POINT('',(1.4,-0.4,0.));
#1200=CARTESIAN_POINT('',(1.45,-0.4,0.));
#1201=CARTESIAN_POINT('',(1.4,-0.45,0.8));
#1202=CARTESIAN_POINT('',(1.4,-0.495,0.8));
#1203=CARTESIAN_POINT('',(1.4,-0.495,0.8));
#1204=CARTESIAN_POINT('',(1.4,-0.45,0.8));
#1205=CARTESIAN_POINT('',(1.4,-0.4,0.8));
#1206=CARTESIAN_POINT('',(1.4,-0.4,0.8));
#1207=CARTESIAN_POINT('',(-1.4,-0.45,0.8));
#1208=CARTESIAN_POINT('',(-1.4,-0.45,0.8));
#1209=CARTESIAN_POINT('',(-1.4,-0.495,0.8));
#1210=CARTESIAN_POINT('',(-1.4,-0.4,0.8));
#1211=CARTESIAN_POINT('',(-1.4,-0.495,0.8));
#1212=CARTESIAN_POINT('',(-1.4,-0.4,0.8));
#1213=CARTESIAN_POINT('',(-1.45,-0.4,0.8));
#1214=CARTESIAN_POINT('',(-1.495,-0.4,0.8));
#1215=CARTESIAN_POINT('',(-1.495,-0.4,0.8));
#1216=CARTESIAN_POINT('',(-1.45,-0.4,0.8));
#1217=CARTESIAN_POINT('',(-1.45,0.4,0.8));
#1218=CARTESIAN_POINT('',(-1.45,0.4,0.8));
#1219=CARTESIAN_POINT('',(-1.4,0.4,0.8));
#1220=CARTESIAN_POINT('',(-1.495,0.4,0.8));
#1221=CARTESIAN_POINT('',(-1.495,0.4,0.));
#1222=CARTESIAN_POINT('',(-1.4,0.4,0.8));
#1223=CARTESIAN_POINT('',(-1.4,0.45,0.8));
#1224=CARTESIAN_POINT('',(-1.4,0.495,0.8));
#1225=CARTESIAN_POINT('',(-1.4,0.495,0.8));
#1226=CARTESIAN_POINT('',(-1.4,0.45,0.8));
#1227=CARTESIAN_POINT('',(1.4,0.45,0.8));
#1228=CARTESIAN_POINT('',(1.4,0.45,0.8));
#1229=CARTESIAN_POINT('',(1.4,0.4,0.8));
#1230=CARTESIAN_POINT('',(1.4,0.495,0.8));
#1231=CARTESIAN_POINT('',(1.4,0.495,0.8));
#1232=CARTESIAN_POINT('',(1.4,0.4,0.8));
#1233=CARTESIAN_POINT('',(1.45,0.4,0.8));
#1234=CARTESIAN_POINT('',(1.495,0.4,0.805));
#1235=CARTESIAN_POINT('',(1.495,0.4,0.8));
#1236=CARTESIAN_POINT('',(1.45,0.4,0.8));
#1237=CARTESIAN_POINT('',(1.45,-0.4,0.8));
#1238=CARTESIAN_POINT('',(1.45,-0.4,0.8));
#1239=CARTESIAN_POINT('',(1.495,-0.4,0.8));
#1240=CARTESIAN_POINT('',(1.495,-0.4,0.805));
#1241=CARTESIAN_POINT('',(0.,1.11022302462516E-16,0.8));
#1242=CARTESIAN_POINT('',(0.,0.495,0.8));
#1243=CARTESIAN_POINT('',(1.495,1.11022302462516E-16,0.8));
#1244=CARTESIAN_POINT('',(-1.4,-0.495,0.8));
#1245=CARTESIAN_POINT('',(-1.495,0.4,0.8));
#1246=CARTESIAN_POINT('',(-1.495,-0.405,0.9));
#1247=CARTESIAN_POINT('',(-1.495,-0.405,0.805));
#1248=CARTESIAN_POINT('',(-1.495,-0.405,0.005));
#1249=CARTESIAN_POINT('',(-1.405,-0.495,0.8));
#1250=CARTESIAN_POINT('',(-1.405,-0.495,0.805));
#1251=CARTESIAN_POINT('',(-1.405,-0.495,0.005));
#1252=CARTESIAN_POINT('',(0.,-0.495,0.005));
#1253=CARTESIAN_POINT('',(-1.495,-0.495,0.005));
#1254=CARTESIAN_POINT('',(-1.495,2.22044604925032E-16,0.005));
#1255=CARTESIAN_POINT('',(-1.495,-0.495,0.005));
#1256=CARTESIAN_POINT('',(-1.495,2.22044604925032E-16,0.805));
#1257=CARTESIAN_POINT('',(-1.495,0.405,0.805));
#1258=CARTESIAN_POINT('',(0.,-0.495,0.805));
#1259=CARTESIAN_POINT('',(1.405,-0.495,0.805));
#1260=CARTESIAN_POINT('',(-1.495,-0.495,0.005));
#1261=CARTESIAN_POINT('',(-1.495,-0.495,0.005));
#1262=CARTESIAN_POINT('',(-1.495,0.405,0.8));
#1263=CARTESIAN_POINT('',(-1.495,0.405,0.005));
#1264=CARTESIAN_POINT('',(1.405,-0.495,0.9));
#1265=CARTESIAN_POINT('',(1.405,-0.495,0.005));
#1266=CARTESIAN_POINT('',(-1.495,-0.495,0.9));
#1267=CARTESIAN_POINT('',(-1.495,-0.495,0.895));
#1268=CARTESIAN_POINT('',(-1.495,2.22044604925032E-16,0.005));
#1269=CARTESIAN_POINT('',(-1.495,0.495,0.005));
#1270=CARTESIAN_POINT('',(0.,-0.495,0.005));
#1271=CARTESIAN_POINT('',(1.495,-0.495,0.005));
#1272=CARTESIAN_POINT('',(-1.495,-0.495,0.895));
#1273=CARTESIAN_POINT('',(-1.495,-0.495,0.895));
#1274=CARTESIAN_POINT('',(-1.495,-0.495,0.895));
#1275=CARTESIAN_POINT('',(-1.495,0.495,0.005));
#1276=CARTESIAN_POINT('',(-1.495,0.495,0.005));
#1277=CARTESIAN_POINT('',(-1.495,0.495,0.005));
#1278=CARTESIAN_POINT('',(1.495,-0.495,0.9));
#1279=CARTESIAN_POINT('',(1.495,-0.495,0.895));
#1280=CARTESIAN_POINT('',(0.,-0.495,0.895));
#1281=CARTESIAN_POINT('',(1.495,-0.495,0.895));
#1282=CARTESIAN_POINT('',(-1.495,1.11022302462516E-16,0.895));
#1283=CARTESIAN_POINT('',(-1.495,0.495,0.895));
#1284=CARTESIAN_POINT('',(-1.495,0.495,0.9));
#1285=CARTESIAN_POINT('',(-1.495,0.495,0.895));
#1286=CARTESIAN_POINT('',(0.,0.495,0.005));
#1287=CARTESIAN_POINT('',(-1.405,0.495,0.005));
#1288=CARTESIAN_POINT('',(1.495,-0.495,0.895));
#1289=CARTESIAN_POINT('',(1.495,-0.495,0.895));
#1290=CARTESIAN_POINT('',(-1.495,0.495,0.895));
#1291=CARTESIAN_POINT('',(-1.495,0.495,0.895));
#1292=CARTESIAN_POINT('',(-1.405,0.495,0.9));
#1293=CARTESIAN_POINT('',(-1.405,0.495,0.805));
#1294=CARTESIAN_POINT('',(1.495,2.4980018054066E-16,0.895));
#1295=CARTESIAN_POINT('',(1.495,0.495,0.895));
#1296=CARTESIAN_POINT('',(0.,0.495,0.895));
#1297=CARTESIAN_POINT('',(1.495,0.495,0.895));
#1298=CARTESIAN_POINT('',(0.,0.495,0.805));
#1299=CARTESIAN_POINT('',(1.405,0.495,0.805));
#1300=CARTESIAN_POINT('',(1.495,0.495,0.895));
#1301=CARTESIAN_POINT('',(1.495,0.495,0.895));
#1302=CARTESIAN_POINT('',(1.405,0.495,0.8));
#1303=CARTESIAN_POINT('',(1.405,0.495,0.005));
#1304=CARTESIAN_POINT('',(1.495,0.495,0.9));
#1305=CARTESIAN_POINT('',(1.495,0.495,0.005));
#1306=CARTESIAN_POINT('',(0.,0.495,0.005));
#1307=CARTESIAN_POINT('',(1.495,1.11022302462516E-16,0.805));
#1308=MECHANICAL_DESIGN_GEOMETRIC_PRESENTATION_REPRESENTATION('',(#761),
#1309);
#1309=(
GEOMETRIC_REPRESENTATION_CONTEXT(3)
GLOBAL_UNCERTAINTY_ASSIGNED_CONTEXT((#1310))
GLOBAL_UNIT_ASSIGNED_CONTEXT((#1313,#1312,#1311))
REPRESENTATION_CONTEXT('Part 1','TOP_LEVEL_ASSEMBLY_PART')
);
#1310=UNCERTAINTY_MEASURE_WITH_UNIT(LENGTH_MEASURE(1.E-8),#1313,
'DISTANCE_ACCURACY_VALUE','Maximum Tolerance applied to model');
#1311=(
NAMED_UNIT(*)
SI_UNIT($,.STERADIAN.)
SOLID_ANGLE_UNIT()
);
#1312=(
NAMED_UNIT(*)
PLANE_ANGLE_UNIT()
SI_UNIT($,.RADIAN.)
);
#1313=(
LENGTH_UNIT()
NAMED_UNIT(*)
SI_UNIT($,.METRE.)
);
#1314=PRODUCT_DEFINITION_SHAPE('','',#1315);
#1315=PRODUCT_DEFINITION('','',#1317,#1316);
#1316=PRODUCT_DEFINITION_CONTEXT('',#1323,'design');
#1317=PRODUCT_DEFINITION_FORMATION_WITH_SPECIFIED_SOURCE('','',#1319,
 .NOT_KNOWN.);
#1318=PRODUCT_RELATED_PRODUCT_CATEGORY('','',(#1319));
#1319=PRODUCT('Part 1','Part 1','Part 1',(#1321));
#1320=PRODUCT_CATEGORY('','');
#1321=PRODUCT_CONTEXT('',#1323,'mechanical');
#1322=APPLICATION_PROTOCOL_DEFINITION('international standard',
'ap242_managed_model_based_3d_engineering',2020,#1323);
#1323=APPLICATION_CONTEXT('managed model based 3d engineering');
ENDSEC;
END-ISO-10303-21;
